<svg xmlns="http://www.w3.org/2000/svg" height="48" viewBox="0 -960 960 960" width="48"><path d="M731.769-455.308v-50.384h142.307v50.384H731.769Zm48.307 281.537-114.614-84.307L696-299.154l114.614 85.307-30.538 40.076ZM696.692-663l-30.538-41.076 112.384-83.692 30.538 40.076L696.692-663ZM205.308-213.771v-158.153h-57.692q-26.071 0-43.381-17.837-17.31-17.836-17.31-42.539v-95.451q0-24.704 17.31-42.514 17.31-17.811 43.381-17.811h159.23l185.23-110.922v437.996l-185.23-110.922h-51.154v158.153h-50.384Zm236.384-136.46v-259.538L320-537.692H149.616q-4.615 0-8.462 3.846-3.846 3.847-3.846 8.462v90.768q0 4.615 3.846 8.462 3.847 3.846 8.462 3.846H320l121.692 72.077Zm125.769-2v-255.538q23.539 22.308 38.923 54.947 15.385 32.639 15.385 72.822t-15.385 72.822Q591-374.539 567.461-352.231ZM289-480Z"/></svg>