<svg width="23" height="22" viewBox="0 0 23 22" fill="none" xmlns="http://www.w3.org/2000/svg">
<path d="M15.3077 16.262L16.7356 14.8341L12.5577 10.5916V5.3149H10.6274V11.3966L15.3077 16.262ZM11.5073 22C10.0104 22 8.58905 21.709 7.24332 21.1269C5.89758 20.5448 4.7283 19.7573 3.73548 18.7645C2.74266 17.7717 1.95521 16.6024 1.37312 15.2567C0.791042 13.9109 0.5 12.4896 0.5 10.9927C0.5 9.49129 0.791562 8.07256 1.37469 6.73652C1.95781 5.40048 2.74667 4.23459 3.74127 3.23884C4.73587 2.24307 5.90514 1.45433 7.24908 0.872596C8.59302 0.290865 10.0124 0 11.5073 0C13.0086 0 14.4271 0.290865 15.763 0.872596C17.0989 1.45433 18.2648 2.24319 19.2608 3.23918C20.2568 4.23518 21.0457 5.40135 21.6274 6.73771C22.2091 8.07405 22.5 9.49312 22.5 10.9949C22.5 12.4967 22.2091 13.9175 21.6274 15.2572C21.0457 16.597 20.2569 17.7641 19.2612 18.7587C18.2654 19.7533 17.0995 20.5422 15.7635 21.1253C14.4274 21.7084 13.0087 22 11.5073 22ZM11.5 20.0697C13.9856 20.0697 16.1186 19.1828 17.899 17.409C19.6795 15.6352 20.5697 13.4989 20.5697 11C20.5697 8.51442 19.6795 6.38141 17.899 4.60096C16.1186 2.82051 13.9812 1.93029 11.4868 1.93029C8.99239 1.93029 6.85938 2.82051 5.08774 4.60096C3.31611 6.38141 2.43029 8.51883 2.43029 11.0132C2.43029 13.5076 3.31719 15.6406 5.09099 17.4123C6.86481 19.1839 9.00115 20.0697 11.5 20.0697Z" fill="#ED3237"/>
</svg>
