<svg width="18" height="22" viewBox="0 0 18 22" fill="none" xmlns="http://www.w3.org/2000/svg">
<path d="M9.00356 10.8812C9.55476 10.8812 10.0268 10.6863 10.4196 10.2966C10.8125 9.90691 11.0089 9.44032 11.0089 8.89685C11.0089 8.35337 10.8113 7.88796 10.4161 7.5006C10.0208 7.11325 9.54763 6.91957 8.99644 6.91957C8.44524 6.91957 7.97321 7.11442 7.58036 7.50411C7.1875 7.89381 6.99107 8.3604 6.99107 8.90387C6.99107 9.44735 7.18869 9.91277 7.58392 10.3001C7.97915 10.6875 8.45237 10.8812 9.00356 10.8812ZM9 19.4646C11.3571 17.387 13.1205 15.4773 14.2902 13.7356C15.4598 11.9939 16.0446 10.435 16.0446 9.05882C16.0446 7.0201 15.3618 5.32195 13.9962 3.96436C12.6305 2.60677 10.9635 1.92797 8.99504 1.92797C7.02662 1.92797 5.36123 2.60677 3.99889 3.96436C2.63654 5.32195 1.95536 7.0201 1.95536 9.05882C1.95536 10.4399 2.55357 12.0001 3.75 13.7393C4.94643 15.4785 6.69643 17.387 9 19.4646ZM9 22C5.94643 19.4998 3.68304 17.1889 2.20982 15.0672C0.736607 12.9456 0 10.9428 0 9.05882C0 6.43537 0.888393 4.26971 2.66518 2.56182C4.44196 0.853942 6.55357 0 9 0C11.4464 0 13.558 0.853942 15.3348 2.56182C17.1116 4.26971 18 6.43537 18 9.05882C18 10.9428 17.2634 12.9456 15.7902 15.0672C14.317 17.1889 12.0536 19.4998 9 22Z" fill="#ED3237"/>
</svg>
