<svg width="21" height="22" viewBox="0 0 21 22" fill="none" xmlns="http://www.w3.org/2000/svg">
<path d="M10.209 10.6069C8.66118 10.6069 7.38938 10.1042 6.39365 9.09869C5.3979 8.09321 4.90003 6.82297 4.90003 5.28794C4.90003 3.75294 5.39635 2.48787 6.38899 1.49272C7.38165 0.497572 8.65189 0 10.1997 0C11.7476 0 13.0239 0.496474 14.0288 1.48942C15.0337 2.48239 15.5361 3.75343 15.5361 5.30253C15.5361 6.82783 15.0352 8.09321 14.0334 9.09869C13.0317 10.1042 11.7569 10.6069 10.209 10.6069ZM0 21.7097V17.9123C0 17.039 0.22506 16.2687 0.675179 15.6014C1.12528 14.9341 1.71365 14.4262 2.44029 14.0777C3.74954 13.4426 5.04459 12.9727 6.32543 12.668C7.60626 12.3634 8.89635 12.2111 10.1957 12.2111C11.5323 12.2111 12.8343 12.3699 14.1017 12.6875C15.3691 13.0051 16.6541 13.4652 17.9569 14.068C18.7 14.3986 19.2989 14.8986 19.7538 15.5681C20.2087 16.2375 20.4361 17.0171 20.4361 17.9067V21.7097H0Z" fill="#ED3237"/>
</svg>
