<svg xmlns="http://www.w3.org/2000/svg" height="40" viewBox="0 -960 960 960" width="40"><path d="M480.024-496q-79.604 0-130.813-51.71-51.21-51.71-51.21-130.654 0-78.943 51.05-130.122 51.051-51.179 130.654-51.179t131.282 51.066q51.679 51.067 51.679 130.735 0 78.444-51.52 130.154Q559.627-496 480.024-496ZM130-115.334V-245.53q0-44.91 23.149-79.229 23.148-34.319 60.518-52.241Q281-409.666 346.872-425.333 412.743-441 479.567-441q68.74 0 133.92 16.334 65.179 16.333 132.179 47.333 38.214 16.999 61.607 51.43t23.393 80.182v130.387H130Z"/></svg>