<svg xmlns="http://www.w3.org/2000/svg" height="48" viewBox="0 -960 960 960" width="48"><path d="m624-281 54-54-158-160.446V-695h-73v230l177 184ZM480.276-64Q395.36-64 319.02-97.02t-132.66-89.34q-56.32-56.32-89.34-132.66T64-480.276q0-85.171 33.079-160.961t89.5-132.276Q243-830 319.238-863q76.238-33 161.038-33 85.162 0 160.943 33T773.5-773.5Q830-717 863-641.192q33 75.807 33 161Q896-395 863-319q-33 76-89.487 132.421-56.486 56.421-132.276 89.5Q565.447-64 480.276-64ZM480-480Zm0 343q141 0 242-100.623Q823-338.247 823-480q0-141-101-242T479.5-823q-141.5 0-242 101T137-479.5q0 141.5 100.623 242Q338.247-137 480-137Z"/></svg>