<svg width="38" height="38" viewBox="0 0 38 38" fill="none" xmlns="http://www.w3.org/2000/svg">
<path d="M10.0086 21.677H27.9916V19.7816H10.0086V21.677ZM10.0086 16.7716H27.9916V14.8763H10.0086V16.7716ZM10.0086 11.8664H27.9916V9.97099H10.0086V11.8664ZM33.8539 33.0292L28.3641 27.5393H6.52544C5.87838 27.5393 5.32008 27.3046 4.85055 26.835C4.38101 26.3655 4.14624 25.807 4.14624 25.1597V6.50697C4.14624 5.85968 4.38101 5.30126 4.85055 4.83173C5.32008 4.36216 5.87839 4.12738 6.52548 4.12738H31.4747C32.1218 4.12738 32.6801 4.36216 33.1496 4.83173C33.6192 5.30126 33.8539 5.86038 33.8539 6.50907V33.0292ZM6.52884 25.6439H29.1882L31.9586 28.5437V6.50998C31.9586 6.38819 31.9078 6.27654 31.8063 6.17503C31.7048 6.07353 31.5931 6.02279 31.4713 6.02279H6.52884C6.40703 6.02279 6.29536 6.07353 6.19385 6.17503C6.09235 6.27654 6.04161 6.38819 6.04161 6.50998V25.1567C6.04161 25.2785 6.09235 25.3902 6.19385 25.4917C6.29536 25.5932 6.40703 25.6439 6.52884 25.6439Z" fill="#414141"/>
</svg>
