<svg width="137" height="136" viewBox="0 0 137 136" fill="none" xmlns="http://www.w3.org/2000/svg">
<g clip-path="url(#clip0_232_63)">
<path d="M68.6614 136C94.1799 136 114.867 135.416 114.867 134.695C114.867 133.975 94.1799 133.391 68.6614 133.391C43.1429 133.391 22.4561 133.975 22.4561 134.695C22.4561 135.416 43.1429 136 68.6614 136Z" fill="#D8DFEA"/>
<path d="M128.886 13.4265V26.107C128.886 46.7016 112.194 63.4025 91.611 63.4025H86.3923L92.1849 57.4277C109.19 57.1218 122.922 43.1884 122.922 26.107V16.4103H100.557L101.303 10.4431H125.905C127.552 10.4426 128.886 11.7779 128.886 13.4265Z" fill="#E8A615"/>
<path d="M87.883 99.3325V105.919H49.1167V99.3325C49.1167 98.7956 49.4073 98.2957 49.877 98.0348L52.8144 96.3789C57.8987 93.5147 61.0448 88.1367 61.0448 82.296V75.3367H75.9549V82.296C75.9549 88.1364 79.101 93.5145 84.1853 96.3789L87.1227 98.0348C87.5924 98.2957 87.883 98.7956 87.883 99.3325Z" fill="#E8A615"/>
<path d="M87.8828 99.3325V105.919H84.1554V99.3325C84.1554 98.7956 83.8647 98.2957 83.3951 98.0348L80.4577 96.3789C75.3734 93.5147 72.2273 88.1367 72.2273 82.296V75.3367H75.955V82.296C75.955 88.1364 79.1011 93.5145 84.1853 96.3789L87.1227 98.0348C87.5921 98.2957 87.8828 98.7956 87.8828 99.3325Z" fill="#B7791D"/>
<path d="M80.428 69.5186V73.8448C80.428 75.9035 78.7582 77.5743 76.7003 77.5743H60.2992C58.2416 77.5743 56.5715 75.9035 56.5715 73.8448V69.5186H80.428Z" fill="#E8A615"/>
<path d="M75.9548 77.5746H61.0447V79.7677H75.9548V77.5746Z" fill="#B7791D"/>
<path d="M93.847 104.427V130.534H43.1526V104.427C43.1526 103.607 43.8237 102.935 44.6436 102.935H92.356C93.1762 102.935 93.847 103.607 93.847 104.427Z" fill="#343B49"/>
<path d="M93.8471 104.427V130.534H90.865V104.427C90.865 103.607 90.194 102.935 89.374 102.935H92.356C93.1762 102.935 93.8471 103.607 93.8471 104.427Z" fill="#262D38"/>
<path d="M98.3201 129.788V132.772C98.3201 133.592 97.6491 134.264 96.8291 134.264H40.1707C39.3508 134.264 38.6797 133.592 38.6797 132.772V129.788C38.6797 128.968 39.3508 128.296 40.1707 128.296H96.8291C97.6493 128.296 98.3201 128.968 98.3201 129.788Z" fill="#262D38"/>
<path d="M98.32 129.788V132.772C98.32 133.592 97.6489 134.264 96.8289 134.264H93.8469C94.6669 134.264 95.3379 133.592 95.3379 132.772V129.788C95.3379 128.968 94.6669 128.296 93.8469 128.296H96.8289C97.6491 128.296 98.32 128.968 98.32 129.788Z" fill="#171C23"/>
<path d="M86.3922 110.394V120.837C86.3922 121.658 85.7211 122.329 84.9012 122.329H52.0989C51.279 122.329 50.6079 121.658 50.6079 120.837V110.394C50.6079 109.574 51.279 108.903 52.0989 108.903H84.9012C85.7214 108.903 86.3922 109.574 86.3922 110.394Z" fill="#E8A615"/>
<path d="M80.4279 69.5186V73.8448C80.4279 75.9035 78.7581 77.5743 76.7003 77.5743H73.7183C75.7759 77.5743 77.4459 75.9035 77.4459 73.8448V69.5186H80.4279Z" fill="#B7791D"/>
<path d="M52.8441 63.4023H45.3891C24.8058 63.4023 8.11377 46.7013 8.11377 26.1068V13.4265C8.11377 11.7779 9.4483 10.4429 11.0958 10.4429H35.6976V16.4101H14.0778V26.1068C14.0778 43.1882 27.8101 57.1216 44.8151 57.4275L52.8441 63.4023Z" fill="#E8A615"/>
<path d="M105.03 4.4754V7.459C105.03 43.7101 88.6733 73.099 68.4999 73.099C48.3265 73.099 31.97 43.7104 31.97 7.459V4.4754H105.03Z" fill="#E8A615"/>
<path d="M32.3052 16.4101H29.3232C29.174 14.4483 29.0771 12.4569 29.0249 10.4429H32.0069C32.0592 12.4566 32.1561 14.4483 32.3052 16.4101Z" fill="#B7791D"/>
<path d="M49.3849 63.4023H46.4029C44.7404 61.5673 43.1599 59.4937 41.6912 57.2111C42.7201 57.3379 43.7561 57.4051 44.815 57.4275C46.2464 59.6279 47.7747 61.6269 49.3849 63.4023Z" fill="#B7791D"/>
<path d="M80.428 69.5186V71.0104C76.6856 73.3302 72.6747 74.5907 68.4999 74.5907C64.3251 74.5907 60.3141 73.3302 56.5718 71.0104V69.5186C60.3141 71.8384 64.3251 73.0989 68.4999 73.0989C72.6747 73.0989 76.6856 71.8384 80.428 69.5186Z" fill="#B7791D"/>
<path d="M105.03 4.4754V7.459C105.03 42.5764 89.6794 71.2567 70.3784 73.017C89.1354 71.2343 96.0835 42.5617 96.0835 7.459V4.4754H105.03Z" fill="#B7791D"/>
<path d="M108.757 3.7295C108.757 4.75895 108.34 5.69126 107.669 6.36995C106.99 7.04128 106.059 7.459 105.03 7.459H31.9701C29.9125 7.459 28.2424 5.78814 28.2424 3.7295C28.2424 2.70005 28.6599 1.76774 29.331 1.08905C30.0094 0.417714 30.9412 0 31.9701 0H105.03C107.088 0 108.757 1.67086 108.757 3.7295Z" fill="#E8A615"/>
<path d="M105.03 7.45898C105.03 8.45851 105.015 9.45068 104.993 10.4426H32.0073C31.9849 9.45041 31.97 8.45851 31.97 7.45898H105.03Z" fill="#B7791D"/>
<path d="M108.757 3.7295C108.757 4.75895 108.34 5.69126 107.668 6.36995C106.99 7.04128 106.058 7.459 105.029 7.459H96.8286C97.8575 7.459 98.7893 7.04128 99.4677 6.36995C100.139 5.69126 100.556 4.75869 100.556 3.7295C100.556 1.67086 98.8865 0 96.8286 0H105.029C107.087 0 108.757 1.67086 108.757 3.7295Z" fill="#B7791D"/>
<path d="M86.3922 110.394V120.837C86.3922 121.657 85.7212 122.329 84.9012 122.329H55.3047C61.3283 122.209 81.1738 120.927 81.1738 108.902H84.9015C85.7214 108.903 86.3922 109.574 86.3922 110.394Z" fill="#B7791D"/>
<path d="M52.0989 117.108V111.005C52.0989 110.667 52.3719 110.394 52.7088 110.394H66.0772C66.0772 110.394 55.4537 111.513 52.0989 117.108Z" fill="#FFCC66"/>
<path d="M44.8301 111.14V105.037C44.8301 104.7 45.1031 104.427 45.44 104.427H58.8084C58.8084 104.427 48.1847 105.546 44.8301 111.14Z" fill="#4E5868"/>
<path d="M68.5 70.8612C60.4038 70.8612 37.9491 53.7725 35.228 13.4261H44.0846C46.3136 62.7905 68.5 70.8612 68.5 70.8612Z" fill="#FFCC66"/>
<path d="M52.844 99.9518C52.844 99.9518 63.2811 93.2387 63.2811 83.5417V99.9518H52.844Z" fill="#FFCC66"/>
<path d="M33.4611 1.49176V3.72946H29.7334C29.7334 2.49863 30.7324 1.49176 31.97 1.49176H33.4611Z" fill="#FFCC66"/>
<path d="M107.229 10.4426C107.177 12.4566 107.08 14.448 106.923 16.4098H100.557L101.302 10.4426H107.229Z" fill="#B7791D"/>
<path d="M94.5108 57.3007C93.0498 59.5457 91.4915 61.5897 89.8514 63.4023H86.3923L89.0315 60.6873L92.1849 57.4277C92.9679 57.4125 93.7432 57.3679 94.5108 57.3007Z" fill="#B7791D"/>
</g>
<defs>
<clipPath id="clip0_232_63">
<rect width="136" height="136" fill="white" transform="translate(0.5)"/>
</clipPath>
</defs>
</svg>
