<svg width="39" height="38" viewBox="0 0 39 38" xmlns="http://www.w3.org/2000/svg">
<path fill="#414141" d="M19.3333 31.9614L17.9875 30.7298C15.3274 28.2976 13.1255 26.2035 11.3816 24.4475C9.63772 22.6915 8.2525 21.1346 7.22594 19.7768C6.19936 18.419 5.48497 17.1876 5.08278 16.0827C4.68059 14.9777 4.47949 13.8656 4.47949 12.7463C4.47949 10.587 5.20769 8.77905 6.6641 7.32252C8.12047 5.86601 9.92304 5.13776 12.0718 5.13776C13.4981 5.13776 14.8328 5.49316 16.076 6.20397C17.3192 6.91478 18.405 7.95004 19.3333 9.30976C20.352 7.91959 21.4643 6.87672 22.6701 6.18113C23.876 5.48555 25.1854 5.13776 26.5983 5.13776C28.7448 5.13776 30.5463 5.86526 32.0027 7.32026C33.459 8.77524 34.1872 10.5813 34.1872 12.7383C34.1872 13.8625 33.9861 14.9772 33.5839 16.0823C33.1817 17.1875 32.4679 18.418 31.4424 19.7737C30.417 21.1295 29.0317 22.6867 27.2865 24.4452C25.5414 26.2038 23.3389 28.2987 20.6791 30.7298L19.3333 31.9614ZM19.3333 29.4358C21.9069 27.0797 24.0285 25.0641 25.6983 23.3889C27.368 21.7137 28.692 20.2488 29.6704 18.9941C30.6487 17.7395 31.3301 16.6245 31.7148 15.6491C32.0995 14.6737 32.2918 13.7077 32.2918 12.7513C32.2918 11.1061 31.7514 9.74181 30.6704 8.65834C29.5895 7.57486 28.2362 7.03312 26.6105 7.03312C25.2862 7.03312 24.0755 7.42 22.9784 8.19375C21.8813 8.96747 20.9378 10.0961 20.1478 11.5797H18.5026C17.7133 10.1036 16.7679 8.97677 15.6663 8.19933C14.5648 7.42186 13.3628 7.03312 12.0604 7.03312C10.442 7.03312 9.08982 7.57348 8.00383 8.65418C6.91785 9.73489 6.37486 11.1052 6.37486 12.7652C6.37486 13.7233 6.5703 14.6906 6.96117 15.667C7.35202 16.6433 8.03306 17.7609 9.0043 19.0198C9.97552 20.2787 11.298 21.7435 12.9719 23.4141C14.6457 25.0847 16.7662 27.0919 19.3333 29.4358Z"/>
</svg>
