<svg xmlns="http://www.w3.org/2000/svg" height="40" viewBox="0 -960 960 960" width="40"><path d="m480-174-25.128-23.025q-99.718-90.898-164.513-156.052T187.666-467.859q-37.897-49.628-52.782-89.423Q120-597.077 120-636.923q0-75.18 50.949-126.129Q221.897-814 296.923-814q54.051 0 100.769 28.538Q444.41-756.923 480-702.154q37.539-55.744 83.513-83.795Q609.487-814 663.077-814q75.026 0 125.975 50.948Q840-712.103 840-636.923q0 39.846-14.884 79.641-14.885 39.795-52.783 89.423-37.897 49.628-102.564 114.782-64.666 65.154-164.641 156.052L480-174Z"/></svg>