<svg width="39" height="38" viewBox="0 0 39 38" xmlns="http://www.w3.org/2000/svg">
<path fill="#414141" d="M5.05103 16.5032L11.8106 4.71954L18.5703 16.5032H5.05103ZM11.8472 32.4888C10.3017 32.4888 8.98669 31.9498 7.90205 30.8719C6.81739 29.7941 6.27506 28.48 6.27506 26.9297C6.27506 25.3559 6.81739 24.0316 7.90205 22.9568C8.98669 21.882 10.3017 21.3445 11.8472 21.3445C13.4062 21.3445 14.7246 21.8835 15.8025 22.9614C16.8804 24.0392 17.4193 25.3577 17.4193 26.9166C17.4193 28.4756 16.8804 29.7941 15.8025 30.8719C14.7246 31.9498 13.4062 32.4888 11.8472 32.4888ZM11.8472 31.149C13.0252 31.149 14.0251 30.7381 14.8469 29.9164C15.6687 29.0946 16.0796 28.0947 16.0796 26.9166C16.0796 25.7386 15.6687 24.7387 14.8469 23.9169C14.0251 23.0952 13.0252 22.6843 11.8472 22.6843C10.6692 22.6843 9.66924 23.0952 8.84746 23.9169C8.02569 24.7387 7.6148 25.7386 7.6148 26.9166C7.6148 28.0947 8.02569 29.0946 8.84746 29.9164C9.66924 30.7381 10.6692 31.149 11.8472 31.149ZM7.37528 15.1634H16.2765L11.8106 7.4386L7.37528 15.1634ZM22.0719 32.4888V21.3445H33.2161V32.4888H22.0719ZM23.4116 31.149H31.8764V22.6843H23.4116V31.149ZM27.644 16.5032C26.6676 15.7237 25.7729 15 24.9599 14.3322C24.1469 13.6643 23.4471 13.0158 22.8605 12.3865C22.2738 11.7572 21.8181 11.132 21.4933 10.5109C21.1686 9.88972 21.0062 9.23914 21.0062 8.55913C21.0062 7.6152 21.3152 6.83571 21.9333 6.22066C22.5514 5.60559 23.3385 5.29805 24.2946 5.29805C24.9081 5.29805 25.4938 5.45182 26.0518 5.75936C26.6099 6.06689 27.1406 6.53326 27.644 7.15847C28.1474 6.54002 28.6848 6.07534 29.2562 5.76442C29.8277 5.45351 30.4168 5.29805 31.0238 5.29805C31.9518 5.29805 32.7268 5.62181 33.3488 6.26931C33.9708 6.91681 34.2818 7.71053 34.2818 8.65045C34.2818 9.31017 34.1194 9.94553 33.7946 10.5565C33.4699 11.1675 33.0141 11.7826 32.4275 12.4018C31.8408 13.0209 31.141 13.6643 30.328 14.3322C29.5151 15 28.6204 15.7237 27.644 16.5032ZM27.644 14.7686C29.59 13.2665 30.9595 12.0536 31.7525 11.13C32.5456 10.2064 32.9421 9.37581 32.9421 8.63829C32.9421 8.06003 32.7605 7.58205 32.3972 7.20435C32.034 6.82664 31.5721 6.63779 31.0116 6.63779C30.6567 6.63779 30.3051 6.74806 29.9566 6.96859C29.6082 7.18909 29.1239 7.5968 28.5036 8.19171L27.644 9.0331L26.7843 8.19171C26.1636 7.56693 25.6798 7.15174 25.3328 6.94614C24.9858 6.74058 24.6336 6.63779 24.2763 6.63779C23.6955 6.63779 23.2285 6.81142 22.8755 7.15867C22.5224 7.50592 22.3459 7.97882 22.3459 8.57737C22.3459 9.3555 22.7424 10.2064 23.5354 11.13C24.3285 12.0536 25.698 13.2665 27.644 14.7686Z"/>
</svg>
