<svg xmlns="http://www.w3.org/2000/svg" height="40" viewBox="0 -960 960 960" width="40"><path d="m110.769-543.077 170.769-297.692 170.77 297.692H110.769Zm171.693 403.846q-58.565 0-99.667-40.846-41.103-40.846-41.103-99.593 0-59.638 41.103-100.369 41.102-40.73 99.667-40.73 59.076 0 99.923 40.846 40.846 40.846 40.846 99.923 0 59.077-40.846 99.923-40.847 40.846-99.923 40.846Zm0-33.846q44.641 0 75.782-31.141T389.385-280q0-44.641-31.141-75.782t-75.782-31.141q-44.642 0-75.783 31.141T175.538-280q0 44.641 31.141 75.782t75.783 31.141ZM169.487-576.923h224.872L281.538-772.077 169.487-576.923Zm371.282 437.692v-281.538h281.539v281.538H540.769Zm33.846-33.846h213.847v-213.846H574.615v213.846Zm106.923-370q-37-29.538-67.807-54.846-30.808-25.308-53.039-49.154-22.231-23.846-34.538-47.385-12.308-23.538-12.308-49.307 0-35.77 23.423-59.077 23.423-23.308 59.654-23.308 23.246 0 44.392 11.654 21.147 11.654 40.223 35.346 19.077-23.436 40.731-35.218 21.654-11.782 44.654-11.782 35.168 0 58.738 24.537t23.57 60.155q0 25-12.308 48.154-12.307 23.154-34.538 46.616-22.231 23.461-53.039 48.769-30.807 25.308-67.808 54.846Zm0-43.82q73.744-56.924 103.795-91.924 30.052-35 30.052-62.948 0-21.913-13.764-36.226-13.764-14.313-35.006-14.313-13.448 0-26.652 8.357-13.204 8.356-36.707 30.9l-21.718 21.256-21.718-21.256q-23.521-23.676-36.67-31.467-13.15-7.79-26.689-7.79-22.011 0-35.39 13.159-13.379 13.159-13.379 35.841 0 29.487 30.051 64.487 30.052 35 103.795 91.924Zm0-102.821Zm-399.23 14.795ZM282.462-280Zm399.076 0Z"/></svg>