<svg width="40" height="41" viewBox="0 0 40 41" fill="none" xmlns="http://www.w3.org/2000/svg">
<path fill-rule="evenodd" clip-rule="evenodd" d="M20.0165 0.5C8.94791 0.5 0 9.66667 0 21.0071C0 30.0721 5.73324 37.7454 13.6868 40.4612C14.6812 40.6654 15.0454 40.02 15.0454 39.4771C15.0454 39.0017 15.0126 37.3721 15.0126 35.6742C9.4445 36.8967 8.28498 33.2296 8.28498 33.2296C7.39015 30.8529 6.06429 30.2421 6.06429 30.2421C4.24185 28.9858 6.19704 28.9858 6.19704 28.9858C8.21861 29.1217 9.27938 31.0908 9.27938 31.0908C11.0686 34.2142 13.9518 33.3317 15.1118 32.7883C15.2773 31.4642 15.8079 30.5475 16.3713 30.0383C11.9303 29.5629 7.25781 27.7975 7.25781 19.9204C7.25781 17.6796 8.05267 15.8462 9.31216 14.4204C9.11344 13.9113 8.41733 11.8058 9.51128 8.98792C9.51128 8.98792 11.2014 8.44458 15.0122 11.0929C16.6438 10.644 18.3263 10.4157 20.0165 10.4137C21.7067 10.4137 23.4295 10.6517 25.0205 11.0929C28.8317 8.44458 30.5218 8.98792 30.5218 8.98792C31.6158 11.8058 30.9192 13.9113 30.7205 14.4204C32.0132 15.8462 32.7753 17.6796 32.7753 19.9204C32.7753 27.7975 28.1028 29.5287 23.6287 30.0383C24.358 30.6833 24.9873 31.9054 24.9873 33.8408C24.9873 36.5908 24.9545 38.7979 24.9545 39.4767C24.9545 40.02 25.3192 40.6654 26.3132 40.4617C34.2667 37.745 39.9999 30.0721 39.9999 21.0071C40.0327 9.66667 31.052 0.5 20.0165 0.5Z" fill="#24292F"/>
</svg>
