<svg width="40" height="41" viewBox="0 0 40 41" fill="none" xmlns="http://www.w3.org/2000/svg">
<path d="M20 10.0968C14.3548 10.0968 9.67737 14.6936 9.67737 20.4194C9.67737 26.1452 14.2741 30.742 20 30.742C25.7258 30.742 30.3225 26.0645 30.3225 20.4194C30.3225 14.7742 25.6451 10.0968 20 10.0968ZM20 27.0323C16.3709 27.0323 13.387 24.0484 13.387 20.4194C13.387 16.7903 16.3709 13.8065 20 13.8065C23.629 13.8065 26.6129 16.7903 26.6129 20.4194C26.6129 24.0484 23.629 27.0323 20 27.0323Z" fill="#24292F"/>
<path d="M30.7258 12.1935C32.0174 12.1935 33.0645 11.1465 33.0645 9.85482C33.0645 8.56319 32.0174 7.51611 30.7258 7.51611C29.4342 7.51611 28.3871 8.56319 28.3871 9.85482C28.3871 11.1465 29.4342 12.1935 30.7258 12.1935Z" fill="black"/>
<path d="M36.7742 3.80645C34.6774 1.62903 31.6935 0.5 28.3064 0.5H11.6935C4.67742 0.5 0 5.17742 0 12.1935V28.7258C0 32.1935 1.12903 35.1774 3.3871 37.3548C5.56452 39.4516 8.46774 40.5 11.7742 40.5H28.2258C31.6935 40.5 34.5968 39.371 36.6936 37.3548C38.871 35.2581 40 32.2742 40 28.8065V12.1935C40 8.80645 38.871 5.90322 36.7742 3.80645ZM36.4516 28.8065C36.4516 31.3065 35.5645 33.3226 34.1129 34.6935C32.6613 36.0645 30.6452 36.7903 28.2258 36.7903H11.7742C9.35484 36.7903 7.33871 36.0645 5.8871 34.6935C4.43548 33.2419 3.70968 31.2258 3.70968 28.7258V12.1935C3.70968 9.77419 4.43548 7.75806 5.8871 6.30645C7.25806 4.93548 9.35484 4.20968 11.7742 4.20968H28.3871C30.8064 4.20968 32.8226 4.93548 34.2742 6.3871C35.6452 7.83871 36.4516 9.85484 36.4516 12.1935V28.8065Z" fill="#24292F"/>
</svg>
