<svg width="40" height="41" viewBox="0 0 40 41" fill="none" xmlns="http://www.w3.org/2000/svg">
<path d="M20 0.5C8.95462 0.5 0 9.45462 0 20.5C0 31.5454 8.95462 40.5 20 40.5C31.0454 40.5 40 31.5454 40 20.5C40 9.45462 31.0454 0.5 20 0.5ZM14.6154 29.7308H10.7692V15.8846H14.6154V29.7308ZM12.6808 14.3462H12.6592C11.5115 14.3462 10.7692 13.4908 10.7692 12.4223C10.7692 11.3308 11.5346 10.5 12.7031 10.5C13.8731 10.5 14.5938 11.3308 14.6154 12.4223C14.6154 13.49 13.8731 14.3462 12.6808 14.3462ZM29.2308 29.7308H25.3846V22.8077C25.3846 20.5 24.2723 19.7308 23.0769 19.7308C21.9654 19.7308 20.7692 20.5 20.7692 22.8077V29.7308H16.9231V15.8846H20.7692V18.1923C21.0331 17.4377 22.2954 15.8846 24.6154 15.8846C27.6923 15.8846 29.2308 18.1923 29.2308 22.0385V29.7308Z" fill="#24292F"/>
</svg>
