<svg width="40" height="41" viewBox="0 0 40 41" fill="none" xmlns="http://www.w3.org/2000/svg">
<g clip-path="url(#clip0_33_213)">
<path fill-rule="evenodd" clip-rule="evenodd" d="M20 40.5C31.0457 40.5 40 31.5457 40 20.5C40 9.4543 31.0457 0.5 20 0.5C8.9543 0.5 0 9.4543 0 20.5C0 31.5457 8.9543 40.5 20 40.5Z" fill="#24292F"/>
<path fill-rule="evenodd" clip-rule="evenodd" d="M10 15.0346V26.3598C10 26.9759 10.451 27.4752 11.0723 27.4752H28.7471C29.3677 27.4752 29.8194 26.9701 29.8194 26.3598V15.0346C29.8194 14.3585 29.4155 13.8333 28.7471 13.8333H11.0723C10.3781 13.8333 10 14.3714 10 15.0346ZM11.6297 16.0211C11.6297 15.7482 11.7948 15.592 12.0587 15.592C12.2219 15.592 18.6445 19.6617 19.0335 19.9004L20.0387 20.5256C20.3574 20.312 20.6774 20.1294 21.0077 19.9082C21.6819 19.4772 27.6806 15.592 27.8458 15.592C28.1103 15.592 28.2748 15.7482 28.2748 16.0211C28.2748 16.3101 27.7181 16.5972 27.3555 16.8185C25.0774 18.2069 22.8 19.7204 20.5445 21.1604C20.4129 21.2494 20.1581 21.4398 19.9671 21.4107C19.7542 21.3778 13.2187 17.1791 12.0297 16.4798C11.851 16.3746 11.6297 16.2785 11.6297 16.0211Z" fill="white"/>
</g>
<defs>
<clipPath id="clip0_33_213">
<rect width="40" height="40" fill="white" transform="translate(0 0.5)"/>
</clipPath>
</defs>
</svg>
