<svg width="445" height="435" viewBox="0 0 445 435" fill="none" xmlns="http://www.w3.org/2000/svg">
<path d="M395.03 364.326C386.891 372.913 379.19 378.451 373.105 382.826C301.581 434.254 216.95 419.263 198.963 415.602C172.403 410.196 121.062 399.746 83.9433 356.003C27.786 289.822 36.5304 185.556 80.0898 116.729C88.0576 104.139 130.145 34.2636 215.688 23.0578C267.458 16.276 327.805 29.9539 371.506 66.6452C463.24 143.663 456.71 299.254 395.03 364.326Z" fill="url(#paint0_linear_30_77)"/>
<path d="M325.556 326.25C385.489 266.189 385.489 168.811 325.556 108.75C265.623 48.689 168.452 48.689 108.519 108.75C48.5855 168.811 48.5855 266.189 108.519 326.25C168.452 386.311 265.623 386.311 325.556 326.25Z" fill="#00A859"/>
<path d="M217.041 348.76C289.38 348.76 348.022 289.993 348.022 217.5C348.022 145.007 289.38 86.2401 217.041 86.2401C144.702 86.2401 86.0599 145.007 86.0599 217.5C86.0599 289.993 144.702 348.76 217.041 348.76Z" fill="url(#paint1_linear_30_77)"/>
<path d="M217.041 355.335C141.201 355.335 79.4998 293.503 79.4998 217.5C79.4998 141.497 141.201 79.6655 217.041 79.6655C292.881 79.6655 354.582 141.497 354.582 217.5C354.582 293.503 292.881 355.335 217.041 355.335ZM217.041 86.24C144.818 86.24 86.0605 145.123 86.0605 217.5C86.0605 289.878 144.818 348.76 217.041 348.76C289.264 348.76 348.021 289.878 348.021 217.5C348.021 145.123 289.264 86.24 217.041 86.24Z" fill="white"/>
<path d="M217.041 297.523C261.142 297.523 296.893 261.695 296.893 217.5C296.893 173.305 261.142 137.478 217.041 137.478C172.94 137.478 137.189 173.305 137.189 217.5C137.189 261.695 172.94 297.523 217.041 297.523Z" fill="url(#paint2_linear_30_77)"/>
<path d="M217.041 304.097C169.393 304.097 130.628 265.25 130.628 217.5C130.628 169.751 169.393 130.904 217.041 130.904C264.689 130.904 303.453 169.751 303.453 217.5C303.453 265.25 264.689 304.097 217.041 304.097ZM217.041 144.052C176.628 144.052 143.749 177.001 143.749 217.5C143.749 258 176.628 290.949 217.041 290.949C257.454 290.949 290.333 258 290.333 217.5C290.333 177.001 257.454 144.052 217.041 144.052Z" fill="white"/>
<path d="M217.041 248.503C234.127 248.503 247.978 234.623 247.978 217.5C247.978 200.378 234.127 186.497 217.041 186.497C199.955 186.497 186.104 200.378 186.104 217.5C186.104 234.623 199.955 248.503 217.041 248.503Z" fill="url(#paint3_linear_30_77)"/>
<path d="M217.041 255.078C196.365 255.078 179.543 238.221 179.543 217.5C179.543 196.779 196.365 179.922 217.041 179.922C237.717 179.922 254.539 196.779 254.539 217.5C254.539 238.221 237.717 255.078 217.041 255.078ZM217.041 193.071C203.599 193.071 192.664 204.029 192.664 217.5C192.664 230.971 203.599 241.929 217.041 241.929C230.482 241.929 241.418 230.971 241.418 217.5C241.418 204.029 230.482 193.071 217.041 193.071Z" fill="white"/>
<path d="M363.478 71.1468L366.737 74.4123L243.344 198.068L240.086 194.803L363.478 71.1468Z" fill="url(#paint4_linear_30_77)"/>
<path d="M242.394 186.923C244.263 185.05 253.076 193.882 251.207 195.755L218.519 221.507C217.312 222.459 215.747 220.891 216.696 219.68L242.394 186.923Z" fill="url(#paint5_linear_30_77)"/>
<path d="M366.667 74.4829L383.267 76.1363L360.478 98.9738C353.011 106.456 342.59 110.188 332.082 109.141L366.667 74.4829Z" fill="#91B3FA"/>
<path d="M363.408 71.2175L361.758 54.5819L338.969 77.4193C331.503 84.9018 327.779 95.3459 328.823 105.876L363.408 71.2175Z" fill="#91B3FA"/>
<g opacity="0.3">
<path d="M135.598 48.1906C135.134 48.6555 134.382 48.655 133.919 48.1902C133.018 47.2871 132.065 46.4097 131.085 45.5825C130.59 45.1639 130.522 44.4259 130.928 43.9235C130.933 43.9175 130.938 43.9117 130.943 43.9055C131.365 43.403 132.114 43.3392 132.616 43.7628C133.647 44.6336 134.651 45.5572 135.599 46.5079C136.032 46.9425 136.06 47.6302 135.682 48.0973C135.656 48.1296 135.628 48.161 135.598 48.1906ZM126.042 41.8838C124.96 41.1983 123.838 40.5529 122.707 39.9647C122.126 39.6622 121.898 38.9439 122.2 38.3604C122.505 37.7759 123.219 37.5495 123.801 37.8523C124.991 38.4709 126.172 39.1504 127.311 39.8713C127.865 40.2224 128.031 40.9577 127.68 41.5133C127.655 41.5536 127.627 41.592 127.598 41.6281C127.224 42.0901 126.556 42.2093 126.042 41.8838ZM116.976 37.4758C115.772 37.0502 114.535 36.672 113.299 36.3514C112.664 36.1869 112.282 35.5375 112.446 34.9013C112.611 34.2658 113.258 33.883 113.893 34.0472C115.196 34.3848 116.499 34.7832 117.766 35.2315C118.385 35.4501 118.709 36.1298 118.491 36.7497C118.445 36.8818 118.377 37.0005 118.294 37.1035C117.987 37.4831 117.463 37.6479 116.976 37.4758ZM107.154 35.2106C105.884 35.0651 104.593 34.9736 103.317 34.9377C102.661 34.9191 102.144 34.3715 102.163 33.7148C102.182 33.058 102.728 32.5407 103.383 32.5585C104.727 32.5964 106.086 32.6931 107.423 32.8455C108.074 32.9201 108.542 33.5098 108.468 34.1628C108.442 34.3964 108.349 34.6066 108.212 34.7766C107.965 35.0819 107.572 35.2581 107.154 35.2106ZM97.0732 35.1947C95.8057 35.3353 94.526 35.5322 93.2705 35.7808C92.6267 35.9078 92.0025 35.4881 91.8755 34.8433C91.7483 34.1981 92.1675 33.5725 92.8109 33.4458C94.1317 33.1845 95.4783 32.9772 96.812 32.8293C97.4638 32.7569 98.0508 33.2278 98.1228 33.8812C98.1592 34.2103 98.0579 34.523 97.865 34.7615C97.6752 34.9961 97.3966 35.1587 97.0732 35.1947ZM87.2402 37.4144C86.0333 37.833 84.8296 38.3087 83.662 38.8287C83.0627 39.0955 82.3607 38.825 82.0947 38.2247C81.8283 37.624 82.0979 36.9209 82.6974 36.6538C83.926 36.1065 85.1934 35.6058 86.4634 35.1653C87.0833 34.9506 87.7593 35.2797 87.974 35.9007C88.1134 36.3042 88.0234 36.7314 87.7734 37.0403C87.6386 37.2068 87.4576 37.3391 87.2402 37.4144ZM56.9505 69.5302C56.3159 69.3647 55.9352 68.7148 56.1005 68.0787C56.4392 66.7758 56.8394 65.47 57.2898 64.198C57.5092 63.5785 58.1881 63.2546 58.8061 63.4746C59.4239 63.6941 59.7471 64.3745 59.5279 64.9937C59.1002 66.2014 58.7205 67.4413 58.3989 68.6787C58.3548 68.8485 58.2765 68.9998 58.1729 69.1279C57.8886 69.4791 57.4158 69.6518 56.9505 69.5302ZM78.1481 41.7605C77.065 42.4372 75.998 43.1692 74.9768 43.9369C74.4518 44.331 73.7075 44.2245 73.3141 43.6986C72.9204 43.1725 73.0293 42.4292 73.552 42.0325C74.6274 41.2244 75.7511 40.4534 76.8918 39.7408C77.4484 39.3932 78.1807 39.5633 78.5278 40.1212C78.803 40.5634 78.753 41.1169 78.4428 41.5002C78.362 41.6003 78.2631 41.6885 78.1481 41.7605ZM60.4212 59.7591C59.8398 59.4555 59.6141 58.7365 59.9172 58.1537C60.5384 56.9602 61.2192 55.7775 61.9401 54.6385C62.2894 54.0815 63.0252 53.9194 63.5791 54.2712C64.1327 54.6232 64.2968 55.3585 63.9455 55.9137C63.2602 56.996 62.6132 58.1198 62.0232 59.2543C61.9857 59.3268 61.9412 59.3933 61.8919 59.4543C61.5437 59.8848 60.9304 60.0253 60.4212 59.7591ZM70.255 48.0329C69.3508 48.9349 68.4735 49.8878 67.6477 50.8659C67.2241 51.368 66.475 51.4304 65.9741 51.0058C65.4801 50.5867 65.4128 49.8499 65.8185 49.3484C65.8238 49.3419 65.8292 49.3352 65.8348 49.3291C66.7039 48.2991 67.6274 47.2957 68.5788 46.3463C69.044 45.8829 69.7957 45.8844 70.2585 46.3501C70.6907 46.7851 70.7177 47.4715 70.3402 47.938C70.3137 47.9705 70.2851 48.0022 70.255 48.0329Z" fill="#91B3FA"/>
<path d="M56.8101 77.3716C56.9574 77.1897 57.053 76.9623 57.0714 76.7108C57.1163 76.0988 57.175 75.4779 57.245 74.8643C57.3199 74.2115 56.8521 73.6212 56.2009 73.5465C55.5493 73.4713 54.9596 73.9398 54.8859 74.5931C54.8119 75.2382 54.7503 75.8915 54.7029 76.5354C54.6546 77.1907 55.1459 77.7616 55.7996 77.8097C56.2027 77.8398 56.5736 77.6641 56.8101 77.3716Z" fill="#91B3FA"/>
</g>
<g opacity="0.3">
<path d="M68.4576 111.724C68.8186 111.278 68.8134 110.623 68.4187 110.181C68.0101 109.724 67.6041 109.251 67.2126 108.775C66.7953 108.268 66.0469 108.196 65.5409 108.614C65.0327 109.034 64.9628 109.782 65.3798 110.289C65.7924 110.79 66.2199 111.289 66.6499 111.77C67.0876 112.259 67.8383 112.3 68.3269 111.862C68.3747 111.819 68.4183 111.772 68.4576 111.724Z" fill="#91B3FA"/>
<path d="M137.304 111.829C136.866 112.318 136.116 112.36 135.627 111.921C135.138 111.483 135.097 110.732 135.534 110.241C136.367 109.309 137.173 108.327 137.94 107.311C138.332 106.788 139.081 106.683 139.604 107.08C140.127 107.476 140.23 108.223 139.835 108.747C139.502 109.187 139.164 109.62 138.82 110.045C138.329 110.652 137.819 111.252 137.304 111.829ZM141.763 103.776C141.192 103.454 140.988 102.729 141.31 102.156C141.926 101.056 142.504 99.9178 143.025 98.7732C143.295 98.1752 144.001 97.9117 144.598 98.1844C145.194 98.4571 145.457 99.1631 145.185 99.7608C144.637 100.966 144.029 102.164 143.38 103.321C143.346 103.381 143.308 103.437 143.266 103.489C142.909 103.931 142.275 104.064 141.763 103.776ZM132.667 116.352C131.66 117.209 130.602 118.034 129.522 118.804C128.988 119.185 128.247 119.06 127.866 118.525C127.486 117.989 127.611 117.247 128.144 116.865C129.17 116.134 130.174 115.35 131.131 114.537C131.631 114.112 132.38 114.174 132.805 114.675C133.18 115.118 133.175 115.757 132.822 116.193C132.776 116.25 132.725 116.303 132.667 116.352ZM145.984 94.4875C145.356 94.2994 144.998 93.6361 145.186 93.0065C145.547 91.7995 145.859 90.5626 146.117 89.3304C146.25 88.6865 146.879 88.2744 147.522 88.4092C148.164 88.5436 148.575 89.1738 148.441 89.817C148.17 91.1148 147.841 92.4174 147.462 93.6883C147.416 93.8417 147.342 93.9794 147.247 94.0967C146.953 94.4602 146.459 94.6298 145.984 94.4875ZM124.01 122.191C122.84 122.804 121.627 123.375 120.405 123.889C119.8 124.143 119.105 123.858 118.851 123.252C118.597 122.646 118.881 121.949 119.486 121.694C120.647 121.206 121.799 120.664 122.91 120.082C123.491 119.777 124.209 120.003 124.512 120.585C124.739 121.019 124.671 121.529 124.382 121.886C124.283 122.009 124.158 122.113 124.01 122.191ZM114.285 125.985C113.006 126.328 111.698 126.621 110.397 126.855C109.751 126.971 109.134 126.541 109.018 125.894C108.902 125.246 109.331 124.628 109.977 124.512C111.213 124.29 112.456 124.012 113.671 123.686C114.305 123.517 114.956 123.894 115.125 124.529C115.227 124.911 115.131 125.3 114.9 125.586C114.747 125.775 114.536 125.918 114.285 125.985ZM103.965 127.566C102.641 127.621 101.301 127.621 99.9809 127.566C99.3254 127.539 98.8168 126.984 98.8439 126.327C98.8714 125.67 99.4249 125.161 100.08 125.188C101.334 125.241 102.608 125.241 103.866 125.188C104.521 125.16 105.074 125.671 105.102 126.327C105.114 126.629 105.014 126.909 104.838 127.126C104.631 127.382 104.319 127.551 103.965 127.566ZM93.5469 126.853C92.2436 126.617 90.9352 126.322 89.6581 125.977C89.0249 125.806 88.6498 125.153 88.8205 124.519C88.9909 123.885 89.6431 123.509 90.2762 123.68C91.4886 124.007 92.7309 124.287 93.9692 124.51C94.6145 124.627 95.0432 125.246 94.9266 125.893C94.8898 126.097 94.8031 126.279 94.6812 126.43C94.4172 126.757 93.9887 126.932 93.5469 126.853ZM83.5348 123.861C82.3183 123.345 81.1078 122.769 79.9365 122.15C79.3563 121.843 79.1338 121.124 79.4399 120.542C79.745 119.963 80.4638 119.738 81.044 120.045C82.1566 120.633 83.3065 121.179 84.4619 121.67C85.0656 121.927 85.3476 122.625 85.0918 123.23C85.0472 123.336 84.9895 123.431 84.9209 123.516C84.5959 123.917 84.0333 124.073 83.5348 123.861ZM74.4319 118.745C73.6396 118.178 72.855 117.579 72.1002 116.966C71.8267 116.744 71.5569 116.52 71.2896 116.293C70.7896 115.868 70.7126 115.115 71.1517 114.616C71.5755 114.114 72.3249 114.052 72.8255 114.477C73.0793 114.692 73.3362 114.906 73.596 115.117C74.3137 115.701 75.0592 116.269 75.8125 116.809C76.346 117.19 76.4696 117.934 76.0885 118.468C76.074 118.488 76.0593 118.508 76.044 118.527C75.6516 119.012 74.9453 119.113 74.4319 118.745Z" fill="#91B3FA"/>
<path d="M149.067 84.0283C149.216 83.8444 149.312 83.615 149.329 83.3613C149.373 82.7185 149.405 82.0626 149.422 81.412C149.44 80.7549 148.924 80.2077 148.268 80.1898C147.612 80.1721 147.066 80.6892 147.048 81.3467C147.031 81.9649 147.002 82.5878 146.96 83.1981C146.915 83.8533 147.408 84.4217 148.063 84.4668C148.464 84.4943 148.832 84.3189 149.067 84.0283Z" fill="#91B3FA"/>
</g>
<path d="M135.71 68.633C135.661 68.4007 135.472 68.2246 135.237 68.1947L128.536 67.3373C127.206 64.4706 125.411 61.7958 123.174 59.4385L124.832 52.8809C124.891 52.6509 124.797 52.4092 124.599 52.2791L117.823 47.8272C117.625 47.6969 117.366 47.7071 117.179 47.8522L111.839 51.9915C108.79 50.8752 105.626 50.2916 102.473 50.2125L99.0164 44.3964C98.8952 44.1926 98.6582 44.0882 98.4265 44.1366L90.4938 45.79C90.2621 45.8382 90.0862 46.0286 90.0563 46.2641L89.2009 52.979C86.3402 54.3115 83.671 56.1108 81.3189 58.3532L74.7753 56.6908C74.5457 56.6323 74.3046 56.7264 74.1749 56.9248L69.7321 63.7153C69.6023 63.9137 69.6126 64.1728 69.7573 64.3605L73.8877 69.7115C72.7737 72.7673 72.1914 75.9377 72.1127 79.098L66.309 82.5617C66.1056 82.6831 66.0013 82.9205 66.0497 83.1528L67.6996 91.1025C67.7477 91.3347 67.9379 91.5108 68.1726 91.5408L74.8733 92.3982C76.2029 95.265 77.9985 97.9397 80.2359 100.297L78.5772 106.855C78.5189 107.085 78.6127 107.326 78.8107 107.456L85.5868 111.908C85.7848 112.038 86.0433 112.028 86.2306 111.883L91.5702 107.744C94.6195 108.86 97.7832 109.444 100.937 109.523L104.393 115.339C104.514 115.543 104.751 115.647 104.983 115.599L112.916 113.945C113.147 113.897 113.323 113.707 113.353 113.471L114.209 106.757C117.069 105.424 119.738 103.625 122.091 101.382L128.634 103.045C128.864 103.103 129.105 103.009 129.235 102.811L133.677 96.0202C133.807 95.8218 133.797 95.5627 133.652 95.375L129.522 90.0242C130.636 86.9684 131.218 83.7979 131.297 80.6376L137.1 77.174C137.304 77.0525 137.408 76.815 137.36 76.5828L135.71 68.633Z" fill="#91B3FA"/>
<path d="M107.215 85.8773C103.908 88.9223 98.7463 88.704 95.7073 85.3901C94.2352 83.785 93.475 81.7013 93.567 79.5231C93.6586 77.3453 94.591 75.333 96.1935 73.858C99.5003 70.8129 104.662 71.0313 107.701 74.3452C110.466 77.36 110.535 81.9136 108.035 85.004C107.787 85.3105 107.513 85.6027 107.215 85.8773ZM95.4655 79.6037C95.395 81.2738 95.9778 82.8712 97.1066 84.1022C99.4363 86.6426 103.395 86.8104 105.93 84.4756C108.467 82.1409 108.632 78.1742 106.302 75.6333C103.973 73.0929 100.014 72.9251 97.4792 75.26C97.2493 75.4717 97.0379 75.6976 96.8448 75.9363C96.0062 76.9728 95.5228 78.2463 95.4655 79.6037Z" fill="#BDD0FB"/>
<path d="M117.067 92.558C117.497 92.0273 117.902 91.4717 118.281 90.8926C118.4 90.7103 118.517 90.526 118.63 90.34C119.189 89.4223 119.675 88.4616 120.079 87.4726C120.084 87.4591 120.09 87.4457 120.095 87.4322C120.111 87.394 120.126 87.3556 120.141 87.317C120.171 87.2422 120.2 87.1672 120.229 87.0922C120.305 86.8949 120.241 86.678 120.086 86.5513C120.048 86.5206 120.005 86.4952 119.957 86.4768C119.712 86.3821 119.438 86.505 119.343 86.7498C118.858 88.012 118.233 89.2301 117.486 90.3703C113.781 96.0361 107.563 99.0796 101.259 98.9984C97.7519 98.9538 94.218 97.9417 91.074 95.8758C90.5226 95.5137 89.9934 95.1262 89.4884 94.7156C86.0889 91.9529 83.7603 88.1341 82.8571 83.782C81.8194 78.7828 82.7866 73.6776 85.5803 69.4076C91.351 60.5891 103.197 58.1227 111.993 63.9021C112.535 64.2584 113.057 64.641 113.558 65.0478C115.726 66.8103 117.486 69.0287 118.702 71.55C118.734 71.6151 118.778 71.6698 118.831 71.7123C118.969 71.8247 119.165 71.8542 119.337 71.7712C119.573 71.6559 119.672 71.3724 119.557 71.1352C118.28 68.4883 116.433 66.1589 114.156 64.3087C113.631 63.8816 113.083 63.4802 112.514 63.106C103.279 57.0381 90.8386 59.6339 84.7857 68.8853C81.8527 73.3683 80.8376 78.7274 81.927 83.9757C82.875 88.5449 85.3197 92.5536 88.8884 95.4542C89.4189 95.8851 89.9741 96.2918 90.5527 96.672C95.0266 99.6113 100.374 100.629 105.611 99.5373C110.172 98.5867 114.173 96.1356 117.067 92.558Z" fill="#BDD0FB"/>
<g opacity="0.3">
<path d="M185.511 36.3037C185.711 36.0567 185.734 35.6986 185.544 35.4235C185.191 34.91 184.817 34.4001 184.433 33.9082C184.183 33.5886 183.723 33.5322 183.403 33.7822C183.083 34.0314 183.028 34.4943 183.278 34.814C183.643 35.2827 184 35.7686 184.337 36.2586C184.567 36.5925 185.024 36.6764 185.358 36.4461C185.417 36.4052 185.468 36.3569 185.511 36.3037Z" fill="#91B3FA"/>
<path d="M181.844 32.0207C181.558 32.3082 181.094 32.3095 180.806 32.0229C180.081 31.3005 179.311 30.6067 178.517 29.9616C178.35 29.8256 178.18 29.6911 178.009 29.5576C177.689 29.3087 177.631 28.847 177.88 28.5263C178.127 28.2325 178.589 28.1479 178.909 28.3967C179.088 28.5365 179.266 28.6773 179.441 28.8196C180.273 29.4959 181.081 30.2232 181.841 30.9811C182.11 31.2491 182.128 31.6749 181.894 31.9642C181.878 31.9837 181.861 32.0023 181.844 32.0207ZM174.933 27.452C173.869 26.8151 172.756 26.2384 171.625 25.7386C171.255 25.5746 171.087 25.1414 171.25 24.7696C171.413 24.4004 171.847 24.2297 172.217 24.3938C173.403 24.9175 174.57 25.5219 175.685 26.19C176.033 26.3982 176.147 26.8496 175.939 27.1983C175.921 27.2288 175.9 27.2577 175.878 27.2848C175.652 27.5641 175.25 27.6417 174.933 27.452ZM168.13 24.4482C166.944 24.0924 165.724 23.8078 164.502 23.6018C164.103 23.5344 163.833 23.1551 163.901 22.7551C163.968 22.3536 164.346 22.0844 164.746 22.1522C166.027 22.368 167.307 22.6671 168.55 23.0396C168.938 23.1561 169.159 23.5657 169.043 23.9546C169.014 24.0492 168.969 24.1341 168.91 24.2065C168.728 24.431 168.423 24.5359 168.13 24.4482ZM160.798 23.2113C159.559 23.1577 158.306 23.1808 157.075 23.2804C156.67 23.3128 156.317 23.0113 156.285 22.6067C156.253 22.2031 156.553 21.8479 156.957 21.815C158.249 21.7108 159.562 21.6866 160.861 21.7427C161.266 21.76 161.58 22.1035 161.562 22.5091C161.555 22.6724 161.495 22.8211 161.4 22.9394C161.258 23.1141 161.039 23.2219 160.798 23.2113ZM153.386 23.8058C152.173 24.0556 150.964 24.383 149.791 24.7787C149.408 24.9085 148.992 24.7016 148.862 24.3168C148.733 23.9321 148.939 23.5148 149.323 23.3856C150.552 22.9708 151.819 22.6277 153.091 22.3655C153.488 22.2841 153.876 22.54 153.957 22.9374C154.003 23.162 153.942 23.3838 153.808 23.5488C153.705 23.6761 153.559 23.77 153.386 23.8058ZM146.344 26.1852C145.228 26.7227 144.136 27.3352 143.098 28.006C142.757 28.2258 142.303 28.1274 142.084 27.7864C141.865 27.4453 141.962 26.9919 142.303 26.7701C143.392 26.0666 144.538 25.4241 145.708 24.8602C146.073 24.6847 146.512 24.8383 146.687 25.2039C146.814 25.4688 146.769 25.7721 146.596 25.9859C146.529 26.0675 146.445 26.1365 146.344 26.1852ZM140.098 30.2166C139.152 31.0096 138.242 31.8727 137.395 32.7828C137.119 33.0791 136.655 33.0953 136.359 32.8183C136.063 32.5417 136.051 32.081 136.323 31.7791C137.211 30.8258 138.165 29.9206 139.157 29.0889C139.468 28.8288 139.931 28.8702 140.191 29.1815C140.419 29.4554 140.415 29.8475 140.198 30.1151C140.169 30.1512 140.136 30.1854 140.098 30.2166ZM132.03 39.0997C131.675 38.9031 131.547 38.4562 131.743 38.1008C132.286 37.1176 132.892 36.1472 133.543 35.2193C133.641 35.0777 133.741 34.9382 133.841 34.7992C134.069 34.4657 134.538 34.3981 134.866 34.638C135.194 34.877 135.265 35.3364 135.027 35.6649C134.932 35.7948 134.839 35.9263 134.745 36.0613C134.123 36.9494 133.544 37.8749 133.027 38.8125C133.005 38.8511 132.981 38.8872 132.954 38.9201C132.734 39.192 132.346 39.2749 132.03 39.0997Z" fill="#91B3FA"/>
</g>
<g opacity="0.3">
<path d="M183.794 73.7941C182.976 74.7786 182.091 75.7212 181.163 76.5971C180.869 76.8749 180.404 76.8615 180.126 76.5658C179.848 76.2701 179.867 75.8059 180.158 75.5266C181.042 74.692 181.886 73.7925 182.666 72.8532C182.925 72.5411 183.388 72.499 183.699 72.7586C184.008 73.0163 184.052 73.4745 183.8 73.7862C183.798 73.7888 183.796 73.7915 183.794 73.7941ZM185.055 70.9102C184.716 70.6899 184.618 70.2347 184.838 69.8942C185.5 68.8689 186.107 67.7932 186.641 66.6965C186.818 66.3345 187.258 66.1803 187.622 66.3591C187.986 66.5371 188.136 66.9767 187.959 67.3418C187.399 68.4909 186.764 69.6183 186.07 70.6925C186.055 70.7152 186.04 70.7364 186.023 70.757C185.79 71.0448 185.374 71.1164 185.055 70.9102ZM178.211 79.0604C177.179 79.8181 176.093 80.5191 174.981 81.1437C174.628 81.3423 174.181 81.216 173.983 80.8623C173.784 80.5082 173.91 80.0622 174.263 79.8616C175.323 79.2659 176.359 78.5973 177.344 77.8749C177.671 77.635 178.13 77.7061 178.369 78.033C178.57 78.3084 178.552 78.6772 178.347 78.9303C178.308 78.9783 178.263 79.0221 178.211 79.0604ZM188.498 64.2393C188.115 64.1073 187.911 63.6889 188.043 63.3052C188.439 62.1507 188.769 60.9606 189.022 59.7671C189.106 59.3707 189.496 59.1171 189.891 59.2007C190.287 59.2853 190.541 59.6754 190.456 60.0726C190.191 61.3242 189.846 62.573 189.43 63.7836C189.401 63.8672 189.359 63.9424 189.306 64.0072C189.118 64.2402 188.797 64.3424 188.498 64.2393ZM171.525 82.8173C170.345 83.3031 169.122 83.7211 167.891 84.0608C167.501 84.1686 167.097 83.9383 166.989 83.547C166.882 83.1556 167.111 82.7507 167.502 82.6431C168.676 82.3198 169.842 81.9207 170.968 81.457C171.342 81.3029 171.771 81.482 171.925 81.8581C172.031 82.1152 171.979 82.3984 171.816 82.6006C171.741 82.6927 171.643 82.7688 171.525 82.8173ZM164.135 84.8575C162.87 85.046 161.582 85.1591 160.309 85.1942C159.904 85.2054 159.567 84.8859 159.556 84.48C159.544 84.0747 159.864 83.7361 160.269 83.7251C161.484 83.6916 162.712 83.5834 163.919 83.4034C164.319 83.3436 164.693 83.6209 164.752 84.0223C164.784 84.2343 164.721 84.4389 164.596 84.5937C164.485 84.7312 164.323 84.8293 164.135 84.8575ZM156.469 85.0658C155.195 84.9456 153.917 84.7457 152.672 84.4724C152.276 84.3852 152.026 83.9935 152.113 83.597C152.199 83.2005 152.591 82.95 152.986 83.0363C154.173 83.2975 155.391 83.4879 156.606 83.6018C157.009 83.6399 157.305 83.9985 157.267 84.4027C157.254 84.5529 157.195 84.6876 157.107 84.7962C156.958 84.9805 156.722 85.0894 156.469 85.0658Z" fill="#91B3FA"/>
<path d="M190.867 56.6286C190.957 56.5185 191.015 56.3815 191.028 56.2296C191.082 55.6028 191.118 54.9717 191.135 54.3534C191.146 53.9479 190.827 53.6096 190.422 53.5982C190.018 53.5884 189.68 53.9073 189.668 54.3131C189.653 54.9026 189.618 55.5047 189.567 56.1029C189.532 56.5073 189.831 56.8636 190.234 56.8984C190.486 56.92 190.719 56.8118 190.867 56.6286Z" fill="#91B3FA"/>
</g>
<path d="M182.019 45.8038C181.987 45.6483 181.86 45.5305 181.703 45.5105L177.219 44.9367C176.329 43.0184 175.128 41.2286 173.631 39.6513L174.741 35.2632C174.78 35.1093 174.717 34.9477 174.584 34.8605L170.05 31.8814C169.918 31.7942 169.745 31.8011 169.619 31.8982L166.046 34.6681C164.006 33.9211 161.889 33.5305 159.779 33.4777L157.466 29.5858C157.385 29.4494 157.226 29.3795 157.071 29.4119L151.763 30.5182C151.608 30.5506 151.49 30.678 151.47 30.8355L150.898 35.3286C148.983 36.2204 147.197 37.4244 145.623 38.9249L141.245 37.8125C141.091 37.7735 140.93 37.8364 140.843 37.9691L137.87 42.5131C137.783 42.6459 137.79 42.8193 137.887 42.9448L140.651 46.5255C139.905 48.5703 139.516 50.6918 139.463 52.8066L135.579 55.1242C135.443 55.2054 135.373 55.3643 135.406 55.5198L136.51 60.8394C136.542 60.9947 136.669 61.1125 136.826 61.1327L141.31 61.7065C142.2 63.6247 143.401 65.4147 144.899 66.9921L143.789 71.3801C143.75 71.534 143.812 71.6956 143.945 71.7828L148.479 74.762C148.612 74.8491 148.785 74.8423 148.91 74.7451L152.483 71.9754C154.523 72.7224 156.64 73.1129 158.751 73.1658L161.063 77.0576C161.144 77.1941 161.303 77.2639 161.458 77.2316L166.766 76.1252C166.921 76.0929 167.039 75.9655 167.059 75.808L167.631 71.3147C169.546 70.4231 171.332 69.2189 172.906 67.7186L177.284 68.831C177.438 68.8699 177.599 68.8071 177.686 68.6742L180.659 64.1304C180.746 63.9977 180.739 63.8242 180.642 63.6986L177.878 60.118C178.624 58.0732 179.013 55.9515 179.066 53.8369L182.95 51.5191C183.086 51.4379 183.155 51.279 183.123 51.1235L182.019 45.8038Z" fill="#91B3FA"/>
<path d="M163.019 57.4148C161.928 58.4203 160.511 58.9392 159.031 58.8762C157.55 58.8138 156.183 58.1772 155.18 57.0834C153.11 54.8265 153.259 51.3087 155.511 49.2277C157.764 47.1538 161.28 47.3029 163.349 49.5597C164.352 50.653 164.87 52.0723 164.808 53.556C164.757 54.762 164.327 55.8934 163.582 56.8144C163.411 57.026 163.223 57.2269 163.019 57.4148ZM156.26 56.0886C156.997 56.8931 158.003 57.3616 159.093 57.4078C160.182 57.4538 161.224 57.072 162.026 56.333C162.828 55.5928 163.296 54.5857 163.342 53.4939C163.388 52.4029 163.007 51.3586 162.27 50.5546C160.747 48.8944 158.161 48.7847 156.504 50.3101C156.354 50.448 156.217 50.5942 156.093 50.7478C154.84 52.2962 154.875 54.5784 156.26 56.0886Z" fill="#BDD0FB"/>
<path d="M169.876 62.0642C170.168 61.7028 170.444 61.3239 170.704 60.9272C171.22 60.1391 171.657 59.2976 172.002 58.4237C172.018 58.3843 172.033 58.345 172.048 58.3056C172.165 58.001 172.067 57.6661 171.826 57.4705C171.768 57.4232 171.701 57.3839 171.627 57.3554C171.249 57.2093 170.826 57.3995 170.68 57.7769C170.365 58.5958 169.96 59.3842 169.478 60.1206L169.478 60.1209C169.451 60.1614 169.424 60.2016 169.397 60.2416C168.24 61.974 166.696 63.3518 164.901 64.2944C163.926 64.8059 162.877 65.1888 161.774 65.4291C161.765 65.4311 161.756 65.4329 161.747 65.4349C161.72 65.4406 161.692 65.4468 161.665 65.4522C158.435 66.1251 155.138 65.4979 152.379 63.6853C152.022 63.451 151.68 63.2003 151.353 62.9345C149.152 61.1459 147.645 58.6737 147.06 55.8558C146.388 52.6194 147.015 49.3149 148.823 46.5507C150.631 43.7888 153.406 41.8932 156.636 41.2195C159.865 40.5466 163.163 41.1738 165.921 42.9864C166.273 43.2167 166.611 43.4647 166.934 43.7277C168.338 44.869 169.477 46.3048 170.265 47.9369C170.313 48.0374 170.381 48.1219 170.463 48.1876C170.677 48.3613 170.98 48.4068 171.244 48.2785C171.608 48.1009 171.762 47.6626 171.585 47.2964C170.704 45.4703 169.429 43.8633 167.859 42.5867C167.497 42.2919 167.119 42.0149 166.726 41.7569C163.639 39.729 159.95 39.0271 156.337 39.7803C152.724 40.5336 149.619 42.6484 147.596 45.7441C145.573 48.8369 144.872 52.5339 145.624 56.1552C146.278 59.3074 147.965 62.0732 150.427 64.0742C150.792 64.3711 151.175 64.652 151.575 64.9142C157.55 68.84 165.469 67.5106 169.876 62.0642Z" fill="#BDD0FB"/>
<path d="M96.0247 409.242C96.0247 409.242 95.1988 413.68 94.7728 418.077C94.6063 419.795 95.915 421.301 97.6356 421.389C103.481 421.689 115.984 422.284 120.474 422.126C121.149 422.102 121.597 421.414 121.353 420.783C121.149 420.254 120.75 419.824 120.238 419.582L99.6673 409.868L96.0247 409.242Z" fill="url(#paint6_linear_30_77)"/>
<path d="M95.4077 406.624L95.9866 411.947C95.9866 411.947 99.5897 413.67 102.08 411.793L100.637 405.853L95.4077 406.624Z" fill="url(#paint7_linear_30_77)"/>
<path d="M96.8325 306.665C96.5475 308.051 94.7133 375.942 101.666 406.441C101.78 406.939 101.524 407.448 101.051 407.637C99.9352 408.081 97.7512 408.719 95.1403 408.782C94.3319 408.801 93.6122 408.268 93.3915 407.488C91.3883 400.408 81.8043 364.94 80.8319 331.137C79.7452 293.365 80.8442 329.851 80.8442 329.851L81.9144 306.519L96.8325 306.665Z" fill="url(#paint8_linear_30_77)"/>
<path d="M72.2356 411.334C72.2356 411.334 70.9669 413.566 69.7028 419.518C69.4745 420.593 70.2155 421.631 71.3058 421.749C73.2349 421.957 76.2049 422.23 78.5862 422.237C79.6838 422.24 80.5495 421.29 80.4278 420.197C80.1848 418.018 79.3971 414.439 76.8854 411.631L72.2356 411.334Z" fill="url(#paint9_linear_30_77)"/>
<path d="M71.2052 404.485L72.5995 412.54C72.5995 412.54 74.0436 413.638 76.9282 412.879L76.3084 404.221L71.2052 404.485Z" fill="url(#paint10_linear_30_77)"/>
<path d="M68.145 308.475C61.8803 344.244 68.587 397.034 70.92 407.376C71.0629 408.009 71.567 408.498 72.205 408.611C73.2884 408.801 75.0737 408.965 76.84 408.469C77.4486 408.299 77.8802 407.754 77.9109 407.121C78.3165 398.782 78.217 347.562 83.9292 327.375C84.2186 326.352 84.8522 325.463 85.7229 324.855L96.5085 317.325L97.4474 304.996L68.145 308.475Z" fill="url(#paint11_linear_30_77)"/>
<path d="M106.537 240.952C88.7879 240.488 69.1531 245.266 69.1531 245.266C63.567 276.157 67.5936 311.888 67.5936 311.888C81.3024 315.631 96.8611 309.96 96.8611 309.96C99.2685 297.049 110.273 260.753 110.273 260.753C118.957 259.757 126.126 257.317 132.041 254.058C127.603 248.801 125.55 242.147 124.668 238.217C118.373 240.111 112.012 241.095 106.537 240.952Z" fill="url(#paint12_linear_30_77)"/>
<path d="M159.224 215.249C157.5 213.122 155.283 214.099 155.283 214.099C152.565 225.133 138.782 233.968 124.668 238.217C125.55 242.147 127.603 248.802 132.041 254.058C155.521 241.122 159.224 215.249 159.224 215.249Z" fill="url(#paint13_linear_30_77)"/>
<path d="M158.795 215.782C158.972 216.365 156.851 217.23 155.629 214.841C155.597 213.701 154.951 208.813 155.64 207.891C159.306 202.981 166.38 196.851 166.38 196.851C167.555 198.035 166.567 199.177 166.567 199.177L163.13 202.698C163.83 203.994 164.688 205.09 165.08 206.653C165.377 207.837 165.176 209.097 164.571 210.166C163.963 211.239 163.135 212.634 162.354 213.724C160.875 215.786 158.795 215.782 158.795 215.782Z" fill="url(#paint14_linear_30_77)"/>
<path d="M161.619 204.989L158.493 207.594L157.494 210.208L160.23 213.309C160.23 213.309 161.209 208.113 161.911 206.992C162.613 205.873 162.26 205.324 161.619 204.989Z" fill="url(#paint15_linear_30_77)"/>
<path d="M75.798 262.557L69.1532 245.266C69.1532 245.266 52.464 256.398 49.6008 270.687C52.7317 270.948 58.4251 271.819 63.9787 274.696C65.2693 267.949 75.798 262.557 75.798 262.557Z" fill="url(#paint16_linear_30_77)"/>
<path d="M90.1342 278.905C90.1342 278.905 71.4169 289.271 65.221 280.207C63.9347 278.325 63.6404 276.464 63.9787 274.696C58.4251 271.819 52.7318 270.948 49.6008 270.687C48.7377 274.994 49.1285 279.588 51.6148 284.251C62.4262 304.528 92.5542 283.528 92.5542 283.528L90.1342 278.905Z" fill="url(#paint17_linear_30_77)"/>
<path d="M88.6935 226.337L82.8892 242.653C82.793 242.923 82.9013 243.225 83.1507 243.366C84.6823 244.234 90.206 246.753 96.9315 242.569C97.6322 242.133 98.1131 241.416 98.2266 240.598L100.191 226.447L88.6935 226.337Z" fill="url(#paint18_linear_30_77)"/>
<path d="M101.128 211.296C101.128 211.296 107.219 223.056 106.379 227.775C105.539 232.493 97.8551 232.08 91.179 228.178L86.6085 215.499L101.128 211.296Z" fill="url(#paint19_linear_30_77)"/>
<path d="M91.5347 221.976C91.8087 221.857 91.9124 221.524 91.7516 221.272C91.2617 220.507 90.3451 218.945 90.0607 217.584C90.0607 217.584 88.9526 216.858 92.9146 215.947C96.8767 215.037 102.786 213.621 104.057 210.261C105.296 206.985 102.201 198.687 97.074 205.226C96.879 205.475 96.5016 205.477 96.3114 205.224C95.4917 204.134 93.3304 201.865 90.2873 203.199C87.4396 204.447 87.1003 206.526 87.1293 207.576C87.1379 207.885 86.86 208.122 86.5577 208.061C85.1267 207.774 81.6884 207.505 80.0488 211.027C78.6984 213.928 79.5425 215.585 80.3177 216.399C80.5688 216.663 80.4535 217.092 80.1047 217.195C79.1597 217.475 77.9354 218.264 78.0361 220.478C78.1754 223.538 81.5901 223.301 82.5628 223.171C82.7223 223.149 82.8821 223.206 82.9887 223.326C83.8128 224.258 87.5284 228.216 91.5859 228.728C91.9371 228.772 92.2131 228.427 92.1011 228.09L90.392 222.952C90.3126 222.714 90.4287 222.454 90.659 222.354L91.5347 221.976Z" fill="url(#paint20_linear_30_77)"/>
<path d="M92.2344 222.71C92.2344 222.71 87.8469 219.631 87.4999 222.185C87.1531 224.739 91.4415 225.927 93.5804 224.994L92.2344 222.71Z" fill="url(#paint21_linear_30_77)"/>
<path d="M86.3091 295.287L96.5051 259.604C96.6208 259.199 96.9657 258.903 97.3833 258.854C99.2305 258.638 104.584 258.032 110.764 257.508C118.209 256.877 126.854 256.366 132.02 256.801C132.755 256.863 133.199 257.641 132.872 258.303C129.934 264.259 117.85 288.488 111.798 296.425C111.598 296.688 111.288 296.842 110.958 296.839L87.3009 296.618C86.6125 296.612 86.1195 295.95 86.3091 295.287Z" fill="url(#paint22_linear_30_77)"/>
<path d="M88.7724 286.666C88.7724 286.666 87.352 280.813 87.925 278.737C88.498 276.66 89.608 273.99 93.308 274.584C97.0082 275.177 101.373 276.739 101.373 276.739C101.373 276.739 101.152 279.443 98.3402 278.571L100.084 279.923C100.084 279.923 99.8348 282.088 97.4595 280.932L99.0813 282.725C99.0813 282.725 98.0612 284.503 96.3136 283.363C94.566 282.222 93.7283 287.37 88.7724 286.666Z" fill="url(#paint23_linear_30_77)"/>
<path d="M110.084 268.16C110.084 269.817 111.424 271.16 113.077 271.16C114.73 271.16 116.07 269.817 116.07 268.16C116.07 266.504 114.73 265.161 113.077 265.161C111.424 265.161 110.084 266.504 110.084 268.16Z" fill="#91B3FA"/>
<path d="M97.6587 270.138L99.7346 263.08C99.9893 262.214 100.685 261.563 101.549 261.382C108.055 260.022 125.864 259.733 126.043 259.73L126.031 258.933C125.297 258.945 107.967 259.226 101.386 260.602C100.235 260.843 99.3093 261.706 98.971 262.855L96.8951 269.912L97.6587 270.138Z" fill="#BDD0FB"/>
<path d="M362.654 217.071C362.937 216.529 363.737 216.614 363.9 217.203C364.505 219.384 365.969 223.19 369.039 224.542C369.194 224.61 369.34 224.679 369.482 224.748C369.621 224.329 369.623 223.844 369.29 223.332C368.335 221.87 370.058 219.874 370.058 219.874C370.058 219.874 370.173 221.632 371.507 222.74C372.656 223.694 373.207 225.816 372.422 227.558C370.76 234.027 368.271 242.583 377.966 248.834C387.66 255.085 401.313 237.037 401.313 237.037L394.537 258.564C394.537 258.564 384.078 266.299 371.912 255.423C359.747 244.547 367.81 228.721 367.81 228.721C367.81 228.721 358.531 224.97 362.654 217.071Z" fill="url(#paint24_linear_30_77)"/>
<path d="M403.011 205.408C403.011 205.408 400.202 192.782 414.633 196.125C414.633 196.125 421.639 194.977 421.995 201.603C421.995 201.603 426.51 204.585 423.204 210.319C423.204 210.319 436.624 205.125 442.471 216.912C448.318 228.7 442.943 235.186 437.309 236.875C437.309 236.875 441.874 239.172 439.713 244.358C437.552 249.544 426.61 253.2 420.146 246.893C420.146 246.893 401.754 249.329 402.122 236.31C402.122 236.31 393.567 230.774 402.552 220.015C411.537 209.255 403.011 205.408 403.011 205.408Z" fill="url(#paint25_linear_30_77)"/>
<path d="M402.218 234.672C405.118 233.801 413.562 232.193 421.593 239.62C422.955 240.88 423.512 242.794 423.026 244.586C420.869 252.545 415.177 276.058 420.168 286.232C420.168 286.232 411.373 295.947 401.779 288.117C401.779 288.117 397.474 269.316 391.836 261.062C387.943 255.364 398.043 239.663 400.599 235.87C400.986 235.296 401.556 234.871 402.218 234.672Z" fill="url(#paint26_linear_30_77)"/>
<path d="M410.225 218.861C410.225 218.861 414.514 231.018 414.836 236.381C414.836 236.381 410.096 238.541 405.63 234.895C405.63 234.895 405.161 222.753 404.484 220.578L410.225 218.861Z" fill="url(#paint27_linear_30_77)"/>
<path d="M404.268 202.285C404.268 202.285 393.05 218.017 399.756 222.586C406.461 227.156 414.447 215.976 414.447 215.976C414.447 215.976 417.05 207.365 414.328 204.444C411.606 201.523 404.268 202.285 404.268 202.285Z" fill="url(#paint28_linear_30_77)"/>
<path d="M409.46 198.526C409.46 198.526 404.307 199.749 403.585 202.086C402.862 204.423 410.892 206.589 413.142 206.695L414.955 216.124C414.955 216.124 420.315 207.254 418.192 202.131C416.069 197.009 409.46 198.526 409.46 198.526Z" fill="url(#paint29_linear_30_77)"/>
<path d="M412.272 214.818C412.272 214.818 416.638 209.751 418.375 213.054C420.112 216.358 414.445 218.838 412.483 217.216L412.272 214.818Z" fill="url(#paint30_linear_30_77)"/>
<path d="M390.579 327.593C390.612 328.446 389.116 335.217 388.303 338.828C387.975 340.281 388.203 341.801 388.942 343.094L417.127 390.632C417.468 391.207 417.716 391.83 417.867 392.482C418.383 394.713 419.454 400.18 418.895 405.154L417.437 408.188L423.743 406.754L425.115 389.783L423.33 388.692C421.787 387.75 420.587 386.341 419.899 384.667C417.35 378.463 411.022 362.671 409.39 354.975C407.536 346.228 397.844 339.124 397.844 339.124L399.547 335.09L390.579 327.593Z" fill="url(#paint31_linear_30_77)"/>
<path d="M430.751 400.914C430.751 400.914 427.346 395.504 426.945 393.398C426.544 391.292 425.429 387.573 423.33 388.692C423.33 388.692 422.34 398.923 422.681 402.92C423.022 406.918 418.172 406.789 418.172 406.789C418.172 406.789 416.835 406.977 415.856 407.958C415.18 408.635 415.664 409.81 416.617 409.872C418.205 409.974 420.726 410.001 423.373 409.489C424.298 409.31 424.984 408.521 425.04 407.578L425.739 395.804L430.034 401.239L430.751 400.914Z" fill="url(#paint32_linear_30_77)"/>
<path d="M407.416 335.165C407.416 335.165 408.41 377.688 408.545 383.727C408.68 389.766 407.593 403.15 401.552 407.15L404.181 409.1C404.181 409.1 407.466 406.302 410.676 400.917C414.281 394.867 415.371 393.762 415.371 393.762L414.175 391.307C413.651 390.232 413.497 389.016 413.738 387.844C415.042 381.512 419.397 360.45 420.585 355.915C421.988 350.56 422.087 343.411 417.209 337.426C412.33 331.441 407.416 335.165 407.416 335.165Z" fill="url(#paint33_linear_30_77)"/>
<path d="M412.995 411.017C413.182 411.019 413.342 410.884 413.368 410.698C413.569 409.281 414.406 403.597 415.091 402.126C415.876 400.44 418.438 393.347 415.09 392.744C415.09 392.744 406.765 404.933 405.167 406.576C403.569 408.219 401.552 407.15 401.552 407.15C401.552 407.15 399.995 407.611 398.821 409.115C398.262 409.83 398.783 410.881 399.689 410.89L405.297 410.943C406.925 410.959 408.39 409.968 408.995 408.452C409.982 405.982 411.678 402.358 413.654 400.75L412.627 410.603C412.604 410.823 412.775 411.015 412.995 411.017Z" fill="url(#paint34_linear_30_77)"/>
<path d="M400.452 283.533C400.452 283.533 401.715 287.569 399.774 294.216L387.732 336.357C387.543 337.019 387.9 337.712 388.547 337.945C392.149 339.24 403.989 342.902 420.153 341.785C420.967 341.729 421.65 341.152 421.827 340.354C422.892 335.55 426.525 319.158 427.274 315.79C430.125 302.957 433.308 289.117 419.304 280.749C412.85 283.519 406.83 285.152 400.452 283.533Z" fill="url(#paint35_linear_30_77)"/>
<path d="M422.742 241.208C422.742 241.208 436.443 252.619 439.843 268.211C443.244 283.803 419.823 285.46 419.823 285.46C419.823 285.46 416.643 281.902 412.868 283.171C409.094 284.44 412.576 276.962 416.993 276.981C421.409 277.001 419.363 280.501 425.611 277.664C431.697 274.902 435.459 266.358 419.931 253.406C419.03 252.655 418.312 251.698 417.88 250.607C414.863 242.997 417.256 238.009 422.742 241.208Z" fill="url(#paint36_linear_30_77)"/>
<path d="M337.007 357.705H332.12V410.669H337.007V357.705Z" fill="#7D97F4"/>
<path d="M355.965 411.69H313.161V408.856C313.161 408.661 313.319 408.502 313.515 408.502H355.612C355.807 408.502 355.965 408.661 355.965 408.856V411.69Z" fill="#7D97F4"/>
<path d="M364.06 355.752C364.06 358.83 361.546 361.349 358.474 361.349H312.45C309.378 361.349 306.865 358.83 306.865 355.752V350.691C306.865 347.612 309.378 345.093 312.45 345.093H358.474C361.546 345.093 364.06 347.612 364.06 350.691V355.752Z" fill="#7D97F4"/>
<path d="M291.241 394.585C291.241 394.585 275.442 401.404 276.347 408.541C276.347 408.541 292.679 405.403 295.601 400.725C298.524 396.047 296.914 393.337 296.914 393.337L291.241 394.585Z" fill="url(#paint37_linear_30_77)"/>
<path d="M295.111 386.79L295.913 393.739C296.034 394.788 295.453 395.822 294.461 396.18C293.965 396.359 293.314 396.482 292.46 396.487C291.254 396.493 290.187 395.699 289.865 394.535L288.311 388.914L295.111 386.79Z" fill="url(#paint38_linear_30_77)"/>
<path d="M329.625 333.503C329.625 333.503 300.565 332.155 286.105 340.606C271.645 349.057 286.839 389.615 286.839 389.615C286.839 389.615 290.616 390.429 296.055 387.516C296.055 387.516 288.293 357.825 301.775 352.66C316.933 346.853 332.611 348.265 332.611 348.265L329.707 334.42L329.625 333.503Z" fill="url(#paint39_linear_30_77)"/>
<path d="M279.522 405.409C282.826 404.684 292.625 400.615 294.113 400.67C295.601 400.724 297.71 402.959 297.71 402.959C297.71 402.959 298.073 404.18 297.009 405.934C294.484 407.907 289.045 411.529 282.722 411.926C278.071 412.218 275.272 410.363 273.672 408.564C275.073 407.197 277.322 405.893 279.522 405.409Z" fill="url(#paint40_linear_30_77)"/>
<path d="M282.722 411.926C289.046 411.529 294.484 407.907 297.009 405.934C296.289 407.119 294.919 408.547 292.343 410.006C285.953 413.624 275.391 413.096 273.298 412.282C271.62 411.63 272.139 410.06 273.672 408.564C275.273 410.363 278.071 412.218 282.722 411.926Z" fill="url(#paint41_linear_30_77)"/>
<path d="M301.179 399.322C300.963 400.142 298.649 402.605 297.311 403.979C296.675 404.631 295.751 404.911 294.862 404.717C294.298 404.593 293.661 404.4 293.11 404.1C292.283 403.65 291.995 402.597 292.449 401.771L295.833 395.603L301.179 399.322Z" fill="url(#paint42_linear_30_77)"/>
<path d="M358.424 331.061C358.424 331.061 360.961 349.094 353.627 352.78C346.293 356.466 330.206 358.879 324.665 368.232C319.125 377.585 309.173 395.944 300.118 401.218C300.118 401.218 294.946 399.533 293.434 396.984C293.434 396.984 304.183 368.666 308.668 361.783C312.551 355.823 318.23 347.236 326.297 343.522C328.607 342.458 328.788 340.003 328.381 337.489L327.641 332.911L358.424 331.061Z" fill="url(#paint43_linear_30_77)"/>
<path d="M290.45 310.618C300.732 313.56 305.334 284.56 305.293 283.855L321.058 302.327C321.058 302.327 311.665 318.891 297.48 320.654C293.892 321.1 290.839 320.478 288.279 319.302C290.165 316.206 290.596 313.148 290.45 310.618Z" fill="url(#paint44_linear_30_77)"/>
<path d="M271.409 301.127C275.89 299.281 279.691 302.964 279.691 302.964C284.132 307.519 287.654 309.819 290.45 310.618C290.596 313.148 290.165 316.206 288.279 319.302C282.739 316.759 279.509 311.617 278.179 309.051C277.7 308.127 276.577 307.736 275.642 308.189C274.692 308.649 273.713 309.352 273.652 310.305C273.531 312.186 271.297 312.297 271.284 311.602C271.271 310.908 273.014 307.193 273.014 307.193C273.014 307.193 267.865 310.503 265.86 311.769C263.856 313.035 262.149 310.945 262.149 310.945C262.149 310.945 266.927 302.972 271.409 301.127Z" fill="url(#paint45_linear_30_77)"/>
<path d="M354.463 271.922C354.463 271.922 340.646 262.476 307.274 279.56C307.274 279.56 303.838 283.926 305.447 288.848C307.057 293.77 326.872 320.406 327.641 332.911C327.641 332.911 341.186 340.901 358.769 332.98C358.769 332.98 364.665 299.961 354.463 271.922Z" fill="url(#paint46_linear_30_77)"/>
<path d="M325.691 259.844L331.151 270.567C331.693 271.632 331.58 272.92 330.836 273.855C329.332 275.743 326.193 278.28 320.836 276.645C319.243 276.158 318.023 274.859 317.639 273.234L314.808 261.266L325.691 259.844Z" fill="url(#paint47_linear_30_77)"/>
<path d="M364.696 309.365C365.631 302.847 348.444 290.213 348.444 290.213L354.463 271.922C354.463 271.922 387.261 295.377 380.363 314.532C379.374 317.278 377.9 319.278 376.102 320.696C372.628 313.558 367.918 310.591 364.696 309.365Z" fill="url(#paint48_linear_30_77)"/>
<path d="M340.717 311.174C340.717 311.174 360.16 316.616 364.193 310.685C364.467 310.282 364.628 309.839 364.696 309.365C367.918 310.591 372.628 313.558 376.101 320.696C366.87 327.973 349.072 319.815 344.236 317.37C343.44 316.968 342.525 316.889 341.675 317.155C339.955 317.693 336.974 318.528 335.314 318.437C332.884 318.303 330.276 327.101 326.142 324.874C326.142 324.874 328.021 309.842 340.717 311.174Z" fill="url(#paint49_linear_30_77)"/>
<path d="M318.692 242.321C318.518 242.471 311.315 255.078 307.649 261.504C306.53 263.466 307.368 265.964 309.441 266.855L311.029 267.537C313.199 268.469 317.866 269.25 319.704 267.763L331.283 255.514C331.283 255.514 322.586 238.943 318.692 242.321Z" fill="url(#paint50_linear_30_77)"/>
<path d="M334.545 252.173C335.965 251.373 337.672 249.754 336.343 246.89C334.992 243.98 332.322 243.727 330.602 243.913C329.906 243.988 329.277 243.545 329.075 242.874C328.96 242.492 328.678 242.154 328.068 242.058C327.246 241.927 326.736 241.087 326.951 240.281C327.362 238.734 327.292 236.632 324.809 235.125C320.402 232.451 316.282 236.335 315.135 239.711C313.988 243.088 318.93 245.715 322.086 246.25C324.485 246.658 325.656 249.431 326.079 250.738C326.213 251.151 326.149 251.602 325.911 251.965L322.39 257.326C323.358 258.547 324.217 259.837 325.062 261.142C325.379 260.8 325.656 260.515 325.872 260.316C327.401 258.913 330.12 259.637 331.24 260.023C331.607 260.15 332.007 260.12 332.351 259.941C333.571 259.31 336.032 257.536 334.015 254.181C333.593 253.479 333.832 252.574 334.545 252.173Z" fill="url(#paint51_linear_30_77)"/>
<path d="M323.781 263.433C323.781 263.433 326.031 257.636 328.59 257.959C331.148 258.283 333.062 260.93 329.76 263.678C325.653 267.097 323.781 263.433 323.781 263.433Z" fill="url(#paint52_linear_30_77)"/>
<path d="M315.892 323.579C315.857 323.581 315.822 323.582 315.787 323.582L270.366 323.532C269.243 323.531 268.334 322.618 268.335 321.493C268.336 320.367 269.251 319.437 270.37 319.457L315.792 319.507C316.915 319.508 317.824 320.421 317.823 321.546C317.821 322.636 316.966 323.526 315.892 323.579Z" fill="url(#paint53_linear_30_77)"/>
<path d="M229.534 282.251H267.361C270.152 282.251 272.692 283.865 273.882 286.394L291.369 323.555H244.36C242.562 323.555 240.946 322.454 240.285 320.778L226.724 286.391C225.941 284.404 227.402 282.251 229.534 282.251Z" fill="url(#paint54_linear_30_77)"/>
<path d="M256.184 301.305C257.003 303.857 256.398 306.335 254.831 306.841C253.264 307.346 251.33 305.687 250.51 303.135C249.69 300.582 250.296 298.104 251.863 297.598C253.429 297.093 255.364 298.752 256.184 301.305Z" fill="#91B3FA"/>
<path d="M235.667 421.207C235.415 421.207 235.159 421.158 234.913 421.056C233.945 420.651 233.498 419.562 233.914 418.623L273.945 328.338C274.361 327.399 275.483 326.965 276.452 327.369C277.421 327.773 277.868 328.862 277.451 329.802L237.421 420.086C237.11 420.787 236.406 421.207 235.667 421.207Z" fill="#91B3FA"/>
<path d="M280.763 421.207C280.023 421.207 279.319 420.787 279.008 420.086L238.978 329.802C238.561 328.862 239.009 327.773 239.977 327.369C240.945 326.965 242.068 327.399 242.485 328.338L282.515 418.623C282.932 419.562 282.484 420.651 281.516 421.056C281.27 421.158 281.015 421.207 280.763 421.207Z" fill="#91B3FA"/>
<path d="M359.579 421.207C359.327 421.207 359.072 421.158 358.826 421.056C357.857 420.651 357.41 419.562 357.826 418.623L397.857 328.338C398.274 327.399 399.395 326.965 400.365 327.369C401.333 327.773 401.78 328.862 401.364 329.802L361.333 420.086C361.023 420.787 360.319 421.207 359.579 421.207Z" fill="#91B3FA"/>
<path d="M404.675 421.207C403.935 421.207 403.231 420.787 402.921 420.086L362.89 329.802C362.473 328.862 362.921 327.773 363.889 327.369C364.857 326.965 365.98 327.399 366.397 328.338L406.427 418.623C406.844 419.562 406.397 420.651 405.428 421.056C405.182 421.158 404.926 421.207 404.675 421.207Z" fill="#91B3FA"/>
<path d="M409.37 325.551C409.472 324.959 409.333 324.346 408.991 323.881C408.649 323.416 408.139 323.146 407.602 323.146H225.491C224.784 323.146 224.126 323.551 223.745 324.219C223.364 324.887 223.313 325.727 223.61 326.447L225.583 331.239C226.035 332.337 227.014 333.039 228.092 333.039H406.352C407.354 333.039 408.216 332.242 408.406 331.138L409.37 325.551Z" fill="#91B3FA"/>
<defs>
<linearGradient id="paint0_linear_30_77" x1="492.514" y1="538.247" x2="137.249" y2="97.9694" gradientUnits="userSpaceOnUse">
<stop stop-color="#DAE3FE"/>
<stop offset="1" stop-color="#E9EFFD"/>
</linearGradient>
<linearGradient id="paint1_linear_30_77" x1="331.149" y1="65.6797" x2="35.4283" y2="457.462" gradientUnits="userSpaceOnUse">
<stop stop-color="#4F52FF"/>
<stop offset="1" stop-color="#4042E2"/>
</linearGradient>
<linearGradient id="paint2_linear_30_77" x1="331.149" y1="65.6798" x2="35.4288" y2="457.462" gradientUnits="userSpaceOnUse">
<stop stop-color="#4F52FF"/>
<stop offset="1" stop-color="#4042E2"/>
</linearGradient>
<linearGradient id="paint3_linear_30_77" x1="243.785" y1="6.24291" x2="227.299" y2="135.913" gradientUnits="userSpaceOnUse">
<stop stop-color="#FF928E"/>
<stop offset="1" stop-color="#FE7062"/>
</linearGradient>
<linearGradient id="paint4_linear_30_77" x1="182.192" y1="208.094" x2="314.313" y2="128.339" gradientUnits="userSpaceOnUse">
<stop stop-color="#09005D"/>
<stop offset="1" stop-color="#1A0F91"/>
</linearGradient>
<linearGradient id="paint5_linear_30_77" x1="226.68" y1="208.061" x2="320.258" y2="130.607" gradientUnits="userSpaceOnUse">
<stop stop-color="#09005D"/>
<stop offset="1" stop-color="#1A0F91"/>
</linearGradient>
<linearGradient id="paint6_linear_30_77" x1="119.998" y1="403.328" x2="43.3863" y2="484.913" gradientUnits="userSpaceOnUse">
<stop stop-color="#09005D"/>
<stop offset="1" stop-color="#1A0F91"/>
</linearGradient>
<linearGradient id="paint7_linear_30_77" x1="95.3832" y1="409.218" x2="102.103" y2="409.282" gradientUnits="userSpaceOnUse">
<stop stop-color="#FEBBBA"/>
<stop offset="1" stop-color="#FF928E"/>
</linearGradient>
<linearGradient id="paint8_linear_30_77" x1="126.844" y1="310.114" x2="61.4563" y2="396.814" gradientUnits="userSpaceOnUse">
<stop stop-color="#09005D"/>
<stop offset="1" stop-color="#1A0F91"/>
</linearGradient>
<linearGradient id="paint9_linear_30_77" x1="103.174" y1="387.526" x2="26.559" y2="469.116" gradientUnits="userSpaceOnUse">
<stop stop-color="#09005D"/>
<stop offset="1" stop-color="#1A0F91"/>
</linearGradient>
<linearGradient id="paint10_linear_30_77" x1="71.1658" y1="408.641" x2="76.968" y2="408.696" gradientUnits="userSpaceOnUse">
<stop stop-color="#FEBBBA"/>
<stop offset="1" stop-color="#FF928E"/>
</linearGradient>
<linearGradient id="paint11_linear_30_77" x1="115.45" y1="301.521" x2="50.0628" y2="388.22" gradientUnits="userSpaceOnUse">
<stop stop-color="#09005D"/>
<stop offset="1" stop-color="#1A0F91"/>
</linearGradient>
<linearGradient id="paint12_linear_30_77" x1="-1932.48" y1="-1228.17" x2="-1863.81" y2="-1177.51" gradientUnits="userSpaceOnUse">
<stop stop-color="#FF928E"/>
<stop offset="1" stop-color="#FE7062"/>
</linearGradient>
<linearGradient id="paint13_linear_30_77" x1="124.71" y1="233.78" x2="159.045" y2="234.106" gradientUnits="userSpaceOnUse">
<stop stop-color="#FEBBBA"/>
<stop offset="1" stop-color="#FF928E"/>
</linearGradient>
<linearGradient id="paint14_linear_30_77" x1="151.451" y1="228.268" x2="127.831" y2="280.541" gradientUnits="userSpaceOnUse">
<stop stop-color="#FEBBBA"/>
<stop offset="1" stop-color="#FF928E"/>
</linearGradient>
<linearGradient id="paint15_linear_30_77" x1="159.101" y1="210.844" x2="168.883" y2="196.143" gradientUnits="userSpaceOnUse">
<stop stop-color="#FEBBBA"/>
<stop offset="1" stop-color="#FF928E"/>
</linearGradient>
<linearGradient id="paint16_linear_30_77" x1="-1937.32" y1="-1221.61" x2="-1868.66" y2="-1170.94" gradientUnits="userSpaceOnUse">
<stop stop-color="#FF928E"/>
<stop offset="1" stop-color="#FE7062"/>
</linearGradient>
<linearGradient id="paint17_linear_30_77" x1="49.1173" y1="281.798" x2="92.5667" y2="282.21" gradientUnits="userSpaceOnUse">
<stop stop-color="#FEBBBA"/>
<stop offset="1" stop-color="#FF928E"/>
</linearGradient>
<linearGradient id="paint18_linear_30_77" x1="81.0609" y1="257.754" x2="97.5331" y2="225.847" gradientUnits="userSpaceOnUse">
<stop stop-color="#FEBBBA"/>
<stop offset="1" stop-color="#FF928E"/>
</linearGradient>
<linearGradient id="paint19_linear_30_77" x1="104.292" y1="224.818" x2="85.4913" y2="213.13" gradientUnits="userSpaceOnUse">
<stop stop-color="#FEBBBA"/>
<stop offset="1" stop-color="#FF928E"/>
</linearGradient>
<linearGradient id="paint20_linear_30_77" x1="75.6312" y1="200.829" x2="99.8895" y2="220.324" gradientUnits="userSpaceOnUse">
<stop stop-color="#09005D"/>
<stop offset="1" stop-color="#1A0F91"/>
</linearGradient>
<linearGradient id="paint21_linear_30_77" x1="99.2902" y1="229.076" x2="82.3748" y2="218.56" gradientUnits="userSpaceOnUse">
<stop stop-color="#FEBBBA"/>
<stop offset="1" stop-color="#FF928E"/>
</linearGradient>
<linearGradient id="paint22_linear_30_77" x1="104.218" y1="254.131" x2="128.289" y2="354.218" gradientUnits="userSpaceOnUse">
<stop stop-color="#09005D"/>
<stop offset="1" stop-color="#1A0F91"/>
</linearGradient>
<linearGradient id="paint23_linear_30_77" x1="87.7889" y1="280.616" x2="101.373" y2="280.616" gradientUnits="userSpaceOnUse">
<stop stop-color="#FEBBBA"/>
<stop offset="1" stop-color="#FF928E"/>
</linearGradient>
<linearGradient id="paint24_linear_30_77" x1="358.514" y1="201.915" x2="395.073" y2="260.381" gradientUnits="userSpaceOnUse">
<stop stop-color="#FEBBBA"/>
<stop offset="1" stop-color="#FF928E"/>
</linearGradient>
<linearGradient id="paint25_linear_30_77" x1="459.691" y1="196.527" x2="422.829" y2="221.052" gradientUnits="userSpaceOnUse">
<stop stop-color="#09005D"/>
<stop offset="1" stop-color="#1A0F91"/>
</linearGradient>
<linearGradient id="paint26_linear_30_77" x1="449.369" y1="200.656" x2="422.733" y2="241.734" gradientUnits="userSpaceOnUse">
<stop stop-color="#FF928E"/>
<stop offset="1" stop-color="#FE7062"/>
</linearGradient>
<linearGradient id="paint27_linear_30_77" x1="403.403" y1="242.407" x2="410.26" y2="227.21" gradientUnits="userSpaceOnUse">
<stop stop-color="#FEBBBA"/>
<stop offset="1" stop-color="#FF928E"/>
</linearGradient>
<linearGradient id="paint28_linear_30_77" x1="403.051" y1="205.449" x2="416.967" y2="235.514" gradientUnits="userSpaceOnUse">
<stop stop-color="#FEBBBA"/>
<stop offset="1" stop-color="#FF928E"/>
</linearGradient>
<linearGradient id="paint29_linear_30_77" x1="449.797" y1="181.657" x2="412.934" y2="206.183" gradientUnits="userSpaceOnUse">
<stop stop-color="#09005D"/>
<stop offset="1" stop-color="#1A0F91"/>
</linearGradient>
<linearGradient id="paint30_linear_30_77" x1="409.575" y1="202.429" x2="423.491" y2="232.493" gradientUnits="userSpaceOnUse">
<stop stop-color="#FEBBBA"/>
<stop offset="1" stop-color="#FF928E"/>
</linearGradient>
<linearGradient id="paint31_linear_30_77" x1="441.746" y1="431.791" x2="390.671" y2="339.797" gradientUnits="userSpaceOnUse">
<stop stop-color="#FEBBBA"/>
<stop offset="1" stop-color="#FF928E"/>
</linearGradient>
<linearGradient id="paint32_linear_30_77" x1="430.766" y1="399.3" x2="415.632" y2="399.157" gradientUnits="userSpaceOnUse">
<stop stop-color="#09005D"/>
<stop offset="1" stop-color="#1A0F91"/>
</linearGradient>
<linearGradient id="paint33_linear_30_77" x1="383.712" y1="363.474" x2="460.945" y2="388.927" gradientUnits="userSpaceOnUse">
<stop stop-color="#FEBBBA"/>
<stop offset="1" stop-color="#FF928E"/>
</linearGradient>
<linearGradient id="paint34_linear_30_77" x1="416.708" y1="401.906" x2="398.666" y2="401.735" gradientUnits="userSpaceOnUse">
<stop stop-color="#09005D"/>
<stop offset="1" stop-color="#1A0F91"/>
</linearGradient>
<linearGradient id="paint35_linear_30_77" x1="470.48" y1="266.62" x2="426.955" y2="299.918" gradientUnits="userSpaceOnUse">
<stop stop-color="#09005D"/>
<stop offset="1" stop-color="#1A0F91"/>
</linearGradient>
<linearGradient id="paint36_linear_30_77" x1="436.857" y1="289.721" x2="363.672" y2="181.44" gradientUnits="userSpaceOnUse">
<stop stop-color="#FEBBBA"/>
<stop offset="1" stop-color="#FF928E"/>
</linearGradient>
<linearGradient id="paint37_linear_30_77" x1="281.818" y1="382.089" x2="286.594" y2="400.553" gradientUnits="userSpaceOnUse">
<stop stop-color="#09005D"/>
<stop offset="1" stop-color="#1A0F91"/>
</linearGradient>
<linearGradient id="paint38_linear_30_77" x1="296.377" y1="392.248" x2="287.984" y2="390.394" gradientUnits="userSpaceOnUse">
<stop stop-color="#FEBBBA"/>
<stop offset="1" stop-color="#FF928E"/>
</linearGradient>
<linearGradient id="paint39_linear_30_77" x1="312.903" y1="372.573" x2="288.218" y2="314.618" gradientUnits="userSpaceOnUse">
<stop stop-color="#09005D"/>
<stop offset="1" stop-color="#1A0F91"/>
</linearGradient>
<linearGradient id="paint40_linear_30_77" x1="282.999" y1="399.957" x2="303.822" y2="444.669" gradientUnits="userSpaceOnUse">
<stop stop-color="#09005D"/>
<stop offset="1" stop-color="#1A0F91"/>
</linearGradient>
<linearGradient id="paint41_linear_30_77" x1="295.783" y1="411.487" x2="273.214" y2="406.502" gradientUnits="userSpaceOnUse">
<stop stop-color="#4F52FF"/>
<stop offset="1" stop-color="#4042E2"/>
</linearGradient>
<linearGradient id="paint42_linear_30_77" x1="300.731" y1="401.354" x2="292.854" y2="399.614" gradientUnits="userSpaceOnUse">
<stop stop-color="#FEBBBA"/>
<stop offset="1" stop-color="#FF928E"/>
</linearGradient>
<linearGradient id="paint43_linear_30_77" x1="320.244" y1="400.383" x2="333.121" y2="332.991" gradientUnits="userSpaceOnUse">
<stop stop-color="#09005D"/>
<stop offset="1" stop-color="#1A0F91"/>
</linearGradient>
<linearGradient id="paint44_linear_30_77" x1="345.311" y1="270.168" x2="267.693" y2="330.248" gradientUnits="userSpaceOnUse">
<stop stop-color="#FF928E"/>
<stop offset="1" stop-color="#FE7062"/>
</linearGradient>
<linearGradient id="paint45_linear_30_77" x1="290.734" y1="311.999" x2="263.257" y2="305.93" gradientUnits="userSpaceOnUse">
<stop stop-color="#FEBBBA"/>
<stop offset="1" stop-color="#FF928E"/>
</linearGradient>
<linearGradient id="paint46_linear_30_77" x1="256.219" y1="353.808" x2="330.178" y2="308.224" gradientUnits="userSpaceOnUse">
<stop stop-color="#FF928E"/>
<stop offset="1" stop-color="#FE7062"/>
</linearGradient>
<linearGradient id="paint47_linear_30_77" x1="331.956" y1="270.193" x2="313.726" y2="266.167" gradientUnits="userSpaceOnUse">
<stop stop-color="#FEBBBA"/>
<stop offset="1" stop-color="#FF928E"/>
</linearGradient>
<linearGradient id="paint48_linear_30_77" x1="260.684" y1="361.052" x2="334.643" y2="315.468" gradientUnits="userSpaceOnUse">
<stop stop-color="#FF928E"/>
<stop offset="1" stop-color="#FE7062"/>
</linearGradient>
<linearGradient id="paint49_linear_30_77" x1="346.431" y1="315.851" x2="419.022" y2="417.284" gradientUnits="userSpaceOnUse">
<stop stop-color="#FEBBBA"/>
<stop offset="1" stop-color="#FF928E"/>
</linearGradient>
<linearGradient id="paint50_linear_30_77" x1="321.868" y1="246.782" x2="312.674" y2="289.822" gradientUnits="userSpaceOnUse">
<stop stop-color="#FEBBBA"/>
<stop offset="1" stop-color="#FF928E"/>
</linearGradient>
<linearGradient id="paint51_linear_30_77" x1="334.532" y1="258.275" x2="316.242" y2="237.191" gradientUnits="userSpaceOnUse">
<stop stop-color="#09005D"/>
<stop offset="1" stop-color="#1A0F91"/>
</linearGradient>
<linearGradient id="paint52_linear_30_77" x1="325.471" y1="287.814" x2="327.75" y2="261.036" gradientUnits="userSpaceOnUse">
<stop stop-color="#FEBBBA"/>
<stop offset="1" stop-color="#FF928E"/>
</linearGradient>
<linearGradient id="paint53_linear_30_77" x1="323.598" y1="311.485" x2="287.526" y2="323.291" gradientUnits="userSpaceOnUse">
<stop stop-color="#09005D"/>
<stop offset="1" stop-color="#1A0F91"/>
</linearGradient>
<linearGradient id="paint54_linear_30_77" x1="274.067" y1="287.793" x2="248.042" y2="315.241" gradientUnits="userSpaceOnUse">
<stop stop-color="#09005D"/>
<stop offset="1" stop-color="#1A0F91"/>
</linearGradient>
</defs>
</svg>
